<?xml version="1.0" encoding="utf-8"?>
<!-- Generator: Adobe Illustrator 18.1.0, SVG Export Plug-In . SVG Version: 6.00 Build 0)  -->
<!DOCTYPE svg PUBLIC "-//W3C//DTD SVG 1.1//EN" "http://www.w3.org/Graphics/SVG/1.1/DTD/svg11.dtd">
<svg version="1.1" id="Layer_1" xmlns="http://www.w3.org/2000/svg" xmlns:xlink="http://www.w3.org/1999/xlink" x="0px" y="0px"
	 viewBox="0 0 1100 1100" enable-background="new 0 0 1100 1100" xml:space="preserve">
<g>
	<g>
		<g>
			<g>
				<path fill="#FFFFFF" stroke="#FFFFFF" stroke-width="0.53" d="M1519.9-84.7l-5.8,2.3l-1.9,4.5l-5.5,2.9l-4.5,1l-0.6,2.9l-3.6,1
					l-2.3,2.6l-4.2-4.2l-1.3-5.2l-2.6-1.6L1484-74l-2.9-0.6l-6,0.1l-2.9-6.5l-5.8-2.3l-0.3-5.5l1.9-1.6l1,3.9l1.9-0.3l3.9-3.2
					l2.6-3.6l-4.8-0.3l-4.2,1.9l-2.9,1.9h-3.4l-3.9,5.2l-4.5,4.2l-3.6,0.3l-2.9,4.2l-4.8,4.2l-4.5,1.9l-3.9,5.2l-6.1,0.6l-13.6,1
					l-3.2,2.9l-10,0.3l-3.9,1.9l-18.1-0.3l-1.6,1.6l-3.9-1.3l-3.6-1.9l-1.9,1.6l-3.6-0.3l-1.3,5.5l-4.2,4.2l-6.1,2.3l-5.2-1.9
					l-8.1-1.3l-5.5-1l-3.6-4.2l-0.6,3.9l-0.6,2.3l-3.6-2.3l-4.5-0.3l-1.9-1.6l-1.3,4.5l-3.2,1.6l-5.2,0.3l-3.6-0.6l-1.7,2.4
					l-3.1,0.9l-2.4,1.3l-0.9,3l-1.6,2.8l-2.5-0.9l-2.1-1.2l-2.1-1.2l-0.9,3l-0.3,2.1l-1.9,1.8l-1.6,2.1l-0.6,2.2l-0.1,2.4l-3.3-1.2
					l-1.2-2.4l-2.1-1.6l0.6-3.3l2.7-0.4l0.6,1.6l2.2-2.1l-0.9-1.9l-1.7-1.5l0.6-2.1l2.4-3l1.9-2.7l10.8-9.4l0.7-2.1l-0.6-6.6
					l-3.3-3.7l-2.4-4.8l-3-4l29.2-18.9l0.1-2.2l-1.9-4.3l-2.7-2.4l-3.7-5.5l-0.4-6.3l0.9-1.3l0.3-10.5l1.2-49.9l2.1-59.5l-1.8-2.1
					l0.1-7.6l2.4-2.2l13.3-60.2l10.9-45.1l-2.4-3.3v-4.5l-1-0.4l0.1-2.1l1.3-1.3l0.7-120.6l-1.5-4.8l-3-2.8l-1.8-0.3l-0.8-6.4
					l-0.9-2.1l-2.4-0.1l-2.4,0.3l-2.7,0.7l-1.2,2.7l-1,3.4l-1,2.7l-2.7-1l-1.5-2.7l0.1-6.3l0.9-5.1l2.7-7.6l2.8-5.5l2.4-4l-1.2-4
					l-3.1-3l-1.5-3.1l2.5-3.4l0.1-7.6l-3.9-3.4l-0.9-4.6l-1.2-16.5l-2.8-2.2l1.5-6.9l0.4-8.5l3-4.8l-0.1-4.2l7.9-9.7l1.8-2.8
					l-0.9-1.8l-0.3-3.4h-1.3l0.1-9l-1.6-0.4l0.1-3.4l3-3.4l1-3.7l0.1-8.4l-2.1-8.4l-4.5-5.8l-6-9.3l1.2-6.4l2.4-4.9l-0.7-4.8
					l-0.4-6.3l2.5-4l2.2-4.3l-0.8-3.9l-2.2-1.3l-3.6-3.9l1-2.7l0.8-4l0.6-3.4l2.1-2.4l0.1-3.7l0.1-4.6l-1.2-1.2l-1.3-2.7l2.2-1.8
					l-0.3-1.2l-81.8,4.5l-82,0.4l-2.7,1.5l-4.2-1.8l-3.7-0.7l-3.4-1.8l-1.6,1.2l-2.4,0.4l-2.4,0.6l-1.5,1.5l-1.6,1.8l-0.4,1.6
					l-5.1-0.3l-3.4-0.6l-1.9,2.1l-1.2,2.5l-3.9,3.3l-3.7,1l-5.7,1.5l-3.3,3l-4.8,3l-4.8,2.1l-3.6,2.4l-4.2,2.8l-2.8,3.3l-4.5,3.6
					l-4.6,4l-9.9,9.3l-4.5,4.2L1048-669l-11.4,10.8l-5.7,6l-9.3,11.4l-0.3,4.8l-1.9,3.1l-4.8,3.4l-10.8,9.6l-3.4-1.2l-2.4,1
					l-4.6,2.4l-4,2.8l-3.7,2.2h-3.4l-1.2,2.2l-1.3,1.2l0.1,6.4l-2.2,2.4l-3.1,1.8l-3.1,1.5l-6.4,0.4h-3l-2.2,4.2l-1.9,5.1l-2.1,2.5
					l-0.7,3.7l1,6.9l6.6,1.9l0.6,2.8l0.1,3.4l2.1,1.8l1.8,2.8l-0.3,1.6l8.2,1.2l2.7,1.8l4.9,0.6l0.1,2.7l0.4,3.1l1.3,1l-0.7,3
					l-2.1,2.4l-3.4,0.6l-2,1.8l-3.3,1.5l-1.8-1.8l-3.3,0.3l-2.5,0.9l-1.5,2.4l1.5,2.4l4,3.3l1.9,4.9l1.8,5.7l0.7,4.8l0.1,8.4
					l1.6,0.9l-1.3,17.4l-3.1,5.5l-5.2,3l-4.9,1.9l-4.3-0.9l-3-1.9h-5.5l-3.4,2.7l-7.6,6.3l-6.4,3.6l-7.2,4.5l-4.3,4.5l-2.7,5.1
					l-4.2,3.7l-3.3,0.1l-7.5,4.9l-7,0.4l-2.8,2.8h-6l-3.9,3l-7.9-0.3l-5.8-0.1l-2.7-1.8l-3.3-1.2l-4.3-0.1l-1.8,2.1l-31.2-0.3
					l-1.3,1.6l-4.3-0.1l-3,1.6L814-439l-3,2.2l-3.1,0.4l-5.1-3.7l-18.4-14.5l-10-0.7l-3.5-1.3l-4.2-1.3l-5.1-1.3l-3.6-1.2h-4.3
					l-6.3-1l-11.7-0.6l-13.8,0.7l-6.3-1.3l-6.3,0.1l-1.6-1.5l-4.6,0.6l-3.7,1.5l-3.6-0.1l-2.4-2.1l-3,0.6l-1,1.8l-13.2-0.1
					c0,0-19.5,4.6-20.4,5.1c-0.9,0.5-10.6,2.4-10.6,2.4l-22.6,7.5l-1.9-0.7l-0.4,2.4l2.2,1.2v14.2l1.5,1l-0.1,3l-3,2.1v5.1l-1.8,0.6
					l0.4,1.8l3.4,1.6l3.6,0.6l0.3,6l-1.8,1.5l0.3,5.4l7.9,6.6l4.2,0.1l1.2,3.7v7.6l2.2,0.4l0.6,3l1.5,1.6l1,1.3l1.5,1.5l-1,1.8
					l-0.9,2.7l0.4,2.4l1.6,0.1l-0.4,2.7l-1.3,0.7L628.7-354l-4,0.9l-3.1,0.7l-2.1,1.9l-1,3.3l-0.4,3.9l-3.9,2.1l-3.6,4.6l-2.4,3.7
					v2.2l-4.6,2.4l-7.7,2.7l-7.9,4.3l-5.4,3.4l-3.4-0.3l-6.3,6.3l-5.2,6L546.1-293l-9.3,4.6l-4.3,2.7l-4.1,0.8l-2.5,46.7l238.3,6.9
					l147.1,4.1l167.2,0.8l3.1,4.4l5.6,3.4l2.8,5.4l0.6,6.6l1.4,3.2l10-0.4l3,2.4l4-0.8l0.8,5l2,1.6l3.2-0.2l-0.4,2.6l-2.4,0.4
					l-1.4,2.4l0.2,1.4l5,0.8l1,5.6l1.8-0.2l-0.6,4l-2.2,0.2l1,3.2l1.6,0.8l-1.2,2.2l1,2.6l-0.4,6.6l-2.2,3l6.8,8.2l-0.2,4l2,0.4
					l0.4,3.8l2.6,0.4l-0.4,3.8h8.4l0.4,2l2.6,1l0.2,3l5.2-0.4l1.8,2.2l4.8-0.4l0.2,1.4l5,0.2h2.6l1.2,4.2l5,7.2l67.4,39.9l34,19.2
					l0.8,3l-1.4,2.4l0.2,3.8l-1.6,1.4l-1,3.2l-0.8,4.4l-2.6,7.6l-5.6,11l-2.8,8.8l-1.2,4.8l-1.1,3.2l0.7-1l3.2,0.4l-1.4,3.8l-1,5.2
					l1.8,4.4l2.2,4.6l2.4,1.4l9.4-1.2l-2.8,3.6l5-0.6l5.2-4l4.4-1.2l3.2-1.2h4.8h3l5.8,0.2h17.7l26.8-9.7l3.9,1l2.3,2.9l22-7.1
					l14.2-5.2l11.6-7.1l12.9-5.2l13.2-5.5l14.9-6.5l24.5-10.3l17.4-9.7l18.7-9l12.3-6.8l11.3-4.8l6.5-3.6l1-2.9L1519.9-84.7z
					 M1199.4-279.9l-34.4-89.8c26.4-10.1,39.6-39.7,29.4-66.1c-10.1-26.4-39.7-39.6-66.1-29.4c-26.4,10.1-39.6,39.7-29.4,66.1
					c5.2,13.5,15.9,24.2,29.4,29.4l-34.5,89.8c-76-29.2-114-114.4-84.8-190.4s114.4-114,190.4-84.8c76,29.2,114,114.4,84.8,190.4
					C1269.3-325.7,1238.4-294.9,1199.4-279.9z"/>
			</g>
		</g>
	</g>
</g>
<g>
	<g>
		<g>
			<path fill="#FFFFFF" stroke="#FFFFFF" stroke-miterlimit="10" d="M558.7,226l2.3,1.1v-64.7c38.2,5.1,76.3-40.5,114.5-10V60.8
				c-45.8-36.6-91.6,36.6-137.3,0v165.1C543.9,223.4,553.1,223.5,558.7,226z"/>
		</g>
	</g>
	<path fill="#FFFFFF" d="M926.4,1050.2H175.2c-25.1,0-45.5-20.4-45.5-45.5l0,0c0-25.1,20.4-45.5,45.5-45.5h751.2
		c25.1,0,45.5,20.4,45.5,45.5l0,0C971.9,1029.9,951.5,1050.2,926.4,1050.2z"/>
	<g>
		<g>
			<path fill="#FFFFFF" d="M962.4,438L562.1,255.5c-5.8-2.6-15.1-2.6-20.8,0L141,438c-5.8,2.6-10.4,9.8-10.4,16.1v83.6h79.6v375.9
				c0,6.3,5.1,11.4,11.4,11.4h113.8c6.3,0,11.4-5.1,11.4-11.4V537.8h136.6v375.9c0,6.3,5.1,11.4,11.4,11.4h113.8
				c6.3,0,11.4-5.1,11.4-11.4V537.8h136.6v375.9c0,6.3,5.1,11.4,11.4,11.4h113.8c6.3,0,11.4-5.1,11.4-11.4V537.8h11.4h68.3v-83.6
				C972.8,447.9,968.1,440.7,962.4,438z M644.2,445.2c-10.1,26.2-30.8,46.9-57,57L564,441.8c17.7-6.8,26.6-26.7,19.8-44.5
				c-6.8-17.7-26.7-26.6-44.5-19.8c-17.7,6.8-26.6,26.7-19.8,44.5c3.5,9.1,10.7,16.3,19.8,19.8l-23.2,60.4
				c-51.1-19.6-76.6-76.9-57-128c19.6-51.1,76.9-76.6,128-57C638.3,336.8,663.8,394.1,644.2,445.2z"/>
		</g>
	</g>
</g>
</svg>
