<?xml version="1.0" encoding="utf-8"?>
<!-- Generator: Adobe Illustrator 18.1.0, SVG Export Plug-In . SVG Version: 6.00 Build 0)  -->
<!DOCTYPE svg PUBLIC "-//W3C//DTD SVG 1.1//EN" "http://www.w3.org/Graphics/SVG/1.1/DTD/svg11.dtd">
<svg version="1.1" id="Layer_1" xmlns="http://www.w3.org/2000/svg" xmlns:xlink="http://www.w3.org/1999/xlink" x="0px" y="0px"
	 viewBox="0 0 900 900" enable-background="new 0 0 900 900" xml:space="preserve">
<path fill="#FFFFFF" d="M550,225c0,13.8-11.2,25-25,25c-13.8,0-25-11.2-25-25c0-13.8,11.2-25,25-25C538.8,200,550,211.2,550,225
	L550,225z M400,225c0,13.8-11.2,25-25,25c-13.8,0-25-11.2-25-25c0-13.8,11.2-25,25-25C388.8,200,400,211.2,400,225L400,225z
	 M753,578L753,578c-4.6,4.5-10.8,7.3-17.8,7.3c-13.9,0-25.1-11.2-25.1-25.1c0-7.4,3.3-14,8.5-18.6c3.9-4.4,6.4-10.2,6.4-16.6V375
	c0-13.8-11.2-25-25-25c-13.8,0-25,11.2-25,25v150v70.4v4.6c0,32.7-15.8,61.6-40,79.8c-0.1,0.1-0.1,0.3-0.3,0.4
	c-5.9,4.6-9.8,11.7-9.8,19.8v75c0,41.4-33.6,75-75,75c-41.4,0-75-33.6-75-75v-1.3v-55c0-10.4-8.4-18.7-18.7-18.7h-12.5
	c-10.4,0-18.7,8.4-18.7,18.7v55v1.3c0,41.4-33.6,75-75,75c-41.4,0-75-33.6-75-75v-75c0-8.1-3.8-15.2-9.8-19.8
	c-0.1-0.1-0.2-0.3-0.3-0.4c-24.2-18.2-40-47.1-40-79.8v-4.6c-7.9,2.8-16.2,4.6-25,4.6c-41.4,0-75-33.6-75-75V375
	c0-39.7,30.9-71.8,69.9-74.5c1.6-0.3,3.3-0.5,5.1-0.5h25h50h121.9H450h100c27.6,0,50-22.4,50-50c0-10.6-3.4-20.4-9-28.5
	c-31.9-43.3-83.1-71.5-141-71.5c-69.2,0-128.9,40.1-157.3,98.4l-0.1,0c-4.1,8.4-12.6,14.2-22.5,14.2c-13.9,0-25.2-11.3-25.2-25.2
	c0-6.2,2.3-11.7,6-16.1c18.5-35.4,46-65.3,79.6-86.6l-27.2-47.1c-6.9-12-2.8-27.2,9.2-34.2c11.9-6.9,27.2-2.8,34.2,9.2l29,50.2
	c23.3-8.2,48.2-12.7,74.3-12.7c26.1,0,51,4.7,74.3,12.8l29.1-50.3c6.9-12,22.2-16.1,34.2-9.2c11.9,6.9,16,22.2,9.1,34.2l-27.3,47.2
	c24,15.2,45.1,34.5,61.9,57.3c11.7,16.4,18.8,36.3,18.8,57.9c0,55.2-44.8,100-100,100H300h-25h-75c-13.8,0-25,11.2-25,25v150
	c0,13.8,11.2,25,25,25c13.8,0,25-11.2,25-25V425c0-13.8,11.2-25,25-25s25,11.2,25,25v175c0,18.7,10.4,34.8,25.6,43.4
	c14.6,8.8,24.4,24.7,24.4,42.9V775c0,13.8,11.2,25,25,25c13.8,0,25-11.2,25-25v-62.5c0-34.5,28-62.5,62.5-62.5h25
	c34.5,0,62.5,28,62.5,62.5V775c0,13.8,11.2,25,25,25c13.8,0,25-11.2,25-25v-88.7c0-18.2,9.7-34.1,24.4-42.9
	c15.2-8.6,25.6-24.7,25.6-43.4v-75V400v-25c0-41.4,33.6-75,75-75s75,33.6,75,75v150C775,545.7,766.6,564.5,753,578L753,578z
	 M457.4,398.6L447,416.7l-0.4,0.2l-10.4-18l-8.8,5.1l13.2,22.9l-76.3,132.2h51.6l31-53.6l30.8,53.3h51.6L453,426.6l13.2-22.9
	L457.4,398.6L457.4,398.6z"/>
</svg>
