<?xml version="1.0" encoding="utf-8"?>
<!-- Generator: Adobe Illustrator 18.1.0, SVG Export Plug-In . SVG Version: 6.00 Build 0)  -->
<!DOCTYPE svg PUBLIC "-//W3C//DTD SVG 1.1//EN" "http://www.w3.org/Graphics/SVG/1.1/DTD/svg11.dtd">
<svg version="1.1" id="Layer_1" xmlns="http://www.w3.org/2000/svg" xmlns:xlink="http://www.w3.org/1999/xlink" x="0px" y="0px"
	 viewBox="0 0 1100 1100" enable-background="new 0 0 1100 1100" xml:space="preserve">
<g>
	<g>
		<path fill="#FFFFFF" d="M895.8,474.4c0-1.3,0.4-2.6,0.4-4c0-131.8-103.3-238.6-230.8-238.6c-90,0-167.1,53.8-205.2,131.4
			c-20.1-7.3-41.5-12.1-64.1-12.1c-105.4,0-190.7,87.6-192.1,196.4h-0.2v1.2C118.9,548.8,50,620,50,707.8s68.9,159.1,153.8,159.1
			v1.2h653.8c106.2,0,192.3-89,192.3-198.9C1050,573,983.7,492.7,895.8,474.4z M802.6,519.6c-3.7,3-10.5,3.9-15.6,3.4
			c-9.3-0.8-18.3-3.7-27.6-5.1c-13.1-1.9-16.6,0.3-21.2,12.6c-5.7,15.1-9,31.6-17.1,45.2c-11.4,19.2-15.4,39.2-15.5,61.3
			c1.1,0.2,2.6,0.7,4,0.5c21.1-2.3,40,2.4,57.1,14.1c1,0.3,2,0.8,3,1.4c6.2,4,12.4,8,18.6,12.1c3.6-1.1,7.7,0.1,10.1,3.3
			c1.6,2.1,2.7,4.9,2.8,7.6c0.1,3.8-1,6.8-3,9.9c-1.6,2.3-4,3.9-6.8,4.9c-0.8,0.8-1.7,1.4-2.8,2c-23.5,11-46.7,21.4-70.9,30.6
			c-9.2,3.5-19.2,5.3-27.9,9.7c-9.2,4.6-17.8,4.8-29.5,1.1c7.5-7.6,14.1-14.1,20.4-20.8c3.6-3.9,6.9-3.9,12.1-2.8
			c6.4,1.5,13.7,2.7,19.3-4c2.1-2.5,6.2-3.2,9.4-4.8c7.3-3.6,15.1-6.7,22.5-10.1c0.3-0.6,0.6-1.1,1-1.7c3-4,6-7.9,9.1-11.9
			c-0.1,0-0.1-0.1-0.2-0.1c-5.8-1.6-11.6-3.3-17.4-4.9c-14.5-0.9-29.2-1-43.8-1.2c-8.9-0.2-18.5,0.7-26.7,3.9
			c-8.5,3.3-15.3,11-23.7,15.1c-51.4,25.4-104.9,34.5-161,17.8c-4.3-1.3-7.8-2.5-11.1,2.2c-6.8,9.7-17.3,14.2-28.2,15.2
			c-33.4,3.2-66.9,5.7-100.4,7.3c-15.3,0.7-27.2,4.6-37.1,17.4c-13.2,17.1-28.3,32.9-42.7,49.1c-2.4,2.7-5.3,6-8.5,6.7
			c-11.4,2.5-23,4-34.5,5.9c-0.6-1-1.2-2-1.8-3c5.3-5,9.8-12.6,16.1-14.5c6.2-1.9,11.4-0.7,16.2-8.2c6.2-9.7,17.2-16.1,24.7-25.1
			c12.5-15.2,23.8-31.3,35.6-46.9c-21.9-7.5-38.4,0.5-54.5,12.5c-12.2,9-25.4,16.8-38.4,24.6c-16,9.5-32.9,4.8-49.5,2.2
			c-0.3-0.1-0.5-1-1-1.9c1-1.6,1.9-3.5,3.1-5.2c4.8-6.6,9.5-13.2,18.7-5.6c1.4,1.2,4.4,1.9,6,1.3c8-3.1,16.5-5.8,23.5-10.5
			c19.7-13.1,40.7-25.1,57.4-41.5c14.5-14.2,27.3-15.7,44.9-9.9c6.6,2.2,15.7,0.4,22.5-2.5c13.6-5.8,15.1-18.4,14.5-31.7
			c-0.6-14.3,8.3-26,21.9-29.9c4-1.1,7.8-2.7,11.8-4c-3.6-7.9-6.4-10-14.3-8.6c-14.3,2.6-28.6,5.6-42.8,9.3
			c-11.9,3.1-23.6,7.4-37.8,3.2c3-1.5,4.4-2.5,6.1-2.9c17.8-5,35.6-10.1,53.5-14.7c10.7-2.8,21-6.3,33-3.9c19.2,4,38.9,5.5,58.5,7.7
			c12.9,1.4,25.9,2.2,38.9,2.9c5.1,0.3,10.5,0.4,15.5-0.8c18.9-4.7,37.6-10.2,56.5-15.1c12.8-3.3,23.2-9.2,32.2-19.5
			c5.6-6.5,14.5-10.8,22.8-14.2c11.3-4.7,24.6-5.3,32.4-16.8c0.6-0.9,2-2,2.9-1.8c11,1.6,14.7-9.2,18.5-14.4
			c8.9-12.3,14-27.4,20.4-41.5c5.8-12.7,9.7-26.6,17.4-38c4.7-7.1,5-11.5,1.2-17.9c-5.4-9.2-4.3-18.3,0.9-28.4
			c14,7.7,15.3,20.7,16.7,34.1c5.5,0.1,10.6,0.3,16.8,0.4c-10.1-22-26.2-36.8-42.4-51.4c-11.1-10.1-22.7-19.7-33.8-29.7
			c-7.2-6.5-10.4-17.7-8.4-26.6c10.7,20.4,11,20,30.9,32.4c3.1,1.9,8.6,0.3,10.5,7c1,3.5,9.6,4.8,16.9,8
			c-8.6-10-15.7-17.9-22.4-26.2c-8.7-10.8-11.3-21.2-6.6-31.2c0.6,20.1,13,29.7,26.5,38.5c4.8,3.1,10.2,5.8,14.3,9.8
			c6.5,6.2,12.5,13,17.9,20.2c6.1,8.1,12.6,16.3,16.8,25.5c6.6,14.4,11.5,29.5,17.1,44.4c0.8,2.3,0.8,4.9,1.9,7
			c3.6,6.8,6.9,13.8,11.4,20c5,6.8,11.4,12.6,16.8,19.1C813.9,506.9,808.9,514.4,802.6,519.6z"/>
	</g>
</g>
</svg>
