<?xml version="1.0" encoding="utf-8"?>
<!-- Generator: Adobe Illustrator 18.1.0, SVG Export Plug-In . SVG Version: 6.00 Build 0)  -->
<!DOCTYPE svg PUBLIC "-//W3C//DTD SVG 1.1//EN" "http://www.w3.org/Graphics/SVG/1.1/DTD/svg11.dtd">
<svg version="1.1" id="Layer_1" xmlns="http://www.w3.org/2000/svg" xmlns:xlink="http://www.w3.org/1999/xlink" x="0px" y="0px"
	 viewBox="0 0 1100 1100" enable-background="new 0 0 1100 1100" xml:space="preserve">
<g>
	<g>
		<g>
			<g>
				<path fill="#FFFFFF" d="M896.2,548.8v-1.2h-0.2c-1.4-108.8-86.7-196.4-192.1-196.4c-22.6,0-43.9,4.8-64.1,12.1
					c-38.1-77.7-115.2-131.4-205.2-131.4c-127.5,0-230.8,106.8-230.8,238.6c0,1.4,0.4,2.6,0.4,4C116.3,492.7,50,573,50,669.3
					c0,109.8,86.1,198.9,192.3,198.9h653.8v-1.2c85,0,153.8-71.2,153.8-159.1C1050,620,981.1,548.8,896.2,548.8z M495,724.3
					c-3.6-24.3-24.5-42.9-49.8-42.9c-25.7,0-46.8,19.2-50,44c-29.6-8-56.2-23.3-77.8-43.7c11.3-9.2,18.6-23.3,18.6-39.1
					c0-27.8-22.6-50.4-50.4-50.4c-6.8,0-13.4,1.4-19.3,3.8c-4-15.1-6.2-31-6.2-47.4c0-16.2,2.1-31.9,6.1-46.9
					c5.8,2.4,12.2,3.7,18.9,3.7c27.8,0,50.4-22.6,50.4-50.4c0-15.7-7.2-29.8-18.5-39c21.7-20.7,48.5-36.1,78.3-44.1
					c3.1,24.9,24.3,44.2,50,44.2c25.4,0,46.3-18.7,49.8-43.1c28,8.2,53.2,23,73.9,42.5c-11.7,9.2-19.3,23.5-19.3,39.6
					c0,27.8,22.6,50.4,50.4,50.4c7.2,0,14-1.5,20.2-4.2c4,15.1,6.2,31,6.2,47.4c0,16.5-2.2,32.5-6.3,47.8
					c-6.2-2.7-12.9-4.2-20.1-4.2c-27.8,0-50.4,22.6-50.4,50.4c0,16,7.4,30.2,19.1,39.5C548.1,701.4,522.9,716.1,495,724.3z
					 M833.4,744.7c-5,11.4-11.4,21.8-18.8,31.1c-3.4-3.7-7.7-6.8-12.6-9c-19.2-8.4-41.7,0.3-50.1,19.6c-4.8,11.1-4,23.2,1.2,33.1
					c-20.2,7.2-42,9.7-63.8,6.9c4.9-17.9-3.9-37.1-21.4-44.8c-17.7-7.8-38.2-0.9-47.9,15.3c-18-14.5-31.8-33.1-40.6-53.8
					c10.6-2.9,19.9-10.5,24.7-21.4c8.4-19.2-0.3-41.7-19.6-50.1c-4.7-2.1-9.7-3.1-14.5-3.2c1.8-11.7,5.1-23.3,10.1-34.7
					c4.9-11.2,11.1-21.4,18.4-30.6c3.3,3.4,7.3,6.3,12,8.3c19.2,8.4,41.7-0.3,50.1-19.6c4.8-10.9,4-22.8-1-32.6
					c21.3-7.7,44.4-10.2,67.5-6.8c-5.4,18.1,3.4,37.9,21.2,45.7c17.5,7.7,37.7,1.1,47.5-14.7c16.9,14.2,29.8,32,38.2,51.8
					c-10.9,2.8-20.5,10.4-25.3,21.5c-8.4,19.2,0.3,41.7,19.6,50.1c5,2.2,10.1,3.2,15.2,3.2C841.7,721.8,838.4,733.4,833.4,744.7z"/>
			</g>
		</g>
	</g>
	<g transform="translate(0,-952.36218)">
		<g transform="matrix(0.7981136,0,0,0.7981136,18.845049,964.294)">
			<path fill="#FFFFFF" d="M515.9,773c-8.7-17-49.2-60.9,19.5-102c-7.2,26.7,20.9,51.9,25,58.6c6.4,10.3,0.2,28-7.9,43.5
				c30.9-1.8,67-33.6,69.8-65.2c2.6-28.7-16.8-53.5-33.6-69.6l-17.4,17.4c-0.4-22.2,17.8-59-51-90.1c2.4,6.5,15.2,45.2-51,93.6
				C425.8,691.1,447.3,764.6,515.9,773z"/>
		</g>
	</g>
	<g transform="translate(0,-952.36218)">
		<g transform="matrix(0.7981136,0,0,0.7981136,18.845049,964.294)">
			<path fill="#FFFFFF" d="M850.6,907.6c-5.8-11.4-33.1-40.9,13.1-68.6c-4.8,18,14.1,34.9,16.8,39.4c4.3,6.9,0.2,18.8-5.3,29.2
				c20.8-1.2,45.1-22.6,47-43.8c1.8-19.3-11.3-36-22.6-46.8l-11.7,11.7c-0.3-14.9,12-39.7-34.3-60.6c1.6,4.3,10.2,30.4-34.3,63
				C790,852.5,804.5,902,850.6,907.6z"/>
		</g>
	</g>
</g>
</svg>
