<?xml version="1.0" encoding="utf-8"?>
<!-- Generator: Adobe Illustrator 18.1.0, SVG Export Plug-In . SVG Version: 6.00 Build 0)  -->
<!DOCTYPE svg PUBLIC "-//W3C//DTD SVG 1.1//EN" "http://www.w3.org/Graphics/SVG/1.1/DTD/svg11.dtd">
<svg version="1.1" id="Layer_1" xmlns="http://www.w3.org/2000/svg" xmlns:xlink="http://www.w3.org/1999/xlink" x="0px" y="0px"
	 viewBox="0 0 1100 1100" enable-background="new 0 0 1100 1100" xml:space="preserve">
<g>
	<path fill="#FFFFFF" d="M1010.9,414.7C993.2,210.2,818.5,50,613.4,50c-11.4,0-23.1,0.5-34.9,1.5c-106,9.2-202.4,59.4-271.2,141
		c-68.6,82-101.2,185.6-92,291.9c5.5,60.5,24,117.6,55.2,170L119.5,827c-23.6,28.1-34.7,63.3-31.5,99.3
		c3.2,36.1,20.1,68.8,47.8,91.9c24.5,20.4,55.6,31.7,87.2,31.7c3.9,0,8-0.2,11.9-0.5c35.8-3.1,68.5-20.2,92-47.9l153.7-175.6
		c43.3,15.3,88.3,23,133.4,23c11.2,0,22.7-0.5,34.1-1.4c106.1-9.2,202.3-59.4,270.9-141.2C987.7,624.4,1020.2,520.8,1010.9,414.7z
		 M638.4,740.3c-8.6,0.7-17,1.1-25.6,1.1c-150,0-277.9-117.1-290.9-266.7C307.8,314.1,427,172.2,587.7,158.1
		c8.6-0.7,17.3-1.1,25.9-1.1c149.6,0,277.1,117.1,290.1,266.6C917.9,584.3,798.8,726.2,638.4,740.3z"/>
	<g>
		<g>
			<g>
				<path fill="#FFFFFF" d="M656.5,502.3c0,0-5.7-2.1-13.5-4.4c23.6-11.8,40-35.5,40-63.1c0-39.2-32.6-71.1-72.8-71.1
					c-40.2,0-72.8,31.9-72.8,71.1c0,27.7,16.4,51.4,40.1,63.2c-7.2,2.4-12.3,4.6-12.3,4.6c-47.9,21-81.9,73.5-81.9,135.3
					c0,1.3,0,2.5,0.1,3.8c38.2,26,82.9,40.1,128.9,40.1c6.8,0,13.4-0.3,20.3-0.9c31-2.7,60.5-11.4,87.7-25.9
					c6.4-3.4,12.6-7.1,18.6-11c0.1-2,0.1-4,0.1-6.1C738.9,575.9,704.6,523.1,656.5,502.3z"/>
				<path fill="#FFFFFF" d="M832,521.5c2.3-7.2,4.3-14.4,5.9-21.7c-12.5-28.6-34.2-51-60.7-62.5c0,0-4.9-1.8-11.8-3.9
					c20.7-10.3,35.1-31.1,35.1-55.3c0-34.4-28.6-62.3-63.8-62.3c-25.6,0-47.3,15-57.4,36.2c24.6,19.6,40.4,49.5,40.4,82.8
					c0,19.5-5.4,38.1-15.1,54.1c38.6,29,63.8,74.8,69.6,126.4c5.2-5.1,10.2-10.6,15-16.2C808.4,576,822.9,549.9,832,521.5z"/>
				<path fill="#FFFFFF" d="M385.4,494.6c8.7,44.3,30.5,85.2,62.9,117.9c6.3-49.9,30.9-94.1,68.1-122.7
					c-10.1-16.3-15.7-35.2-15.7-55.1c0-33.1,15.5-62.7,39.8-82.3c-10-21.6-31.8-36.8-57.6-36.8c-35.3,0-63.9,27.9-63.9,62.3
					c0,24.3,14.4,45.1,35.1,55.4c-6.3,2.1-10.8,4-10.8,4C418.6,448.3,398.1,468.7,385.4,494.6z"/>
			</g>
		</g>
	</g>
</g>
</svg>
