<?xml version="1.0" encoding="utf-8"?>
<!-- Generator: Adobe Illustrator 18.1.0, SVG Export Plug-In . SVG Version: 6.00 Build 0)  -->
<!DOCTYPE svg PUBLIC "-//W3C//DTD SVG 1.1//EN" "http://www.w3.org/Graphics/SVG/1.1/DTD/svg11.dtd">
<svg version="1.1" id="Layer_1" xmlns="http://www.w3.org/2000/svg" xmlns:xlink="http://www.w3.org/1999/xlink" x="0px" y="0px"
	 viewBox="0 0 1000 1000" enable-background="new 0 0 1000 1000" xml:space="preserve">
<g>
	<g>
		<g>
			<g>
				<path fill="#FFFFFF" stroke="#FFFFFF" stroke-miterlimit="10" d="M508.3,224.4l2,0.9v-55.1c32.5,4.3,64.9-34.5,97.4-8.5V83.8
					c-39-31.1-77.9,31.1-116.8,0v140.5C495.7,222.2,503.5,222.2,508.3,224.4z"/>
			</g>
		</g>
		<path fill="#FFFFFF" d="M821.2,925.7H182c-21.4,0-38.7-17.4-38.7-38.7l0,0c0-21.4,17.4-38.7,38.7-38.7h639.2
			c21.4,0,38.7,17.4,38.7,38.7l0,0C859.9,908.4,842.5,925.7,821.2,925.7z"/>
	</g>
	<g>
		<g>
			<path fill="#FFFFFF" d="M847.9,403.3L507.3,248c-4.9-2.2-12.8-2.2-17.7,0L148.9,403.3c-4.9,2.2-8.8,8.3-8.8,13.7v71.1h67.7V808
				c0,5.4,4.3,9.7,9.7,9.7h96.8c5.4,0,9.7-4.3,9.7-9.7V488.3h116.2v319.9c0,5.4,4.3,9.7,9.7,9.7h96.8c5.4,0,9.7-4.3,9.7-9.7V488.3
				h116.2v319.9c0,5.4,4.3,9.7,9.7,9.7h96.8c5.4,0,9.7-4.3,9.7-9.7V488.3h9.7h58.1v-71.1C856.7,411.8,852.7,405.6,847.9,403.3z
				 M523.8,434.1l-25.2-43.7l-25.4,44h-42.3L493.4,326l-10.8-18.8l7.2-4.1l8.5,14.8l0.3-0.2l8.6-14.8l7.2,4.1l-10.8,18.8l62.6,108.4
				H523.8z"/>
		</g>
	</g>
</g>
</svg>
