<?xml version="1.0" encoding="utf-8"?>
<!-- Generator: Adobe Illustrator 18.1.0, SVG Export Plug-In . SVG Version: 6.00 Build 0)  -->
<!DOCTYPE svg PUBLIC "-//W3C//DTD SVG 1.1//EN" "http://www.w3.org/Graphics/SVG/1.1/DTD/svg11.dtd">
<svg version="1.1" id="Layer_1" xmlns="http://www.w3.org/2000/svg" xmlns:xlink="http://www.w3.org/1999/xlink" x="0px" y="0px"
	 viewBox="0 0 1060 1060" enable-background="new 0 0 1060 1060" xml:space="preserve">
<g>
	<g>
		<path fill="#FFFFFF" d="M921.5,349.4c2.1,0,4.1,0.8,5.6,2.3c3.1,3.1,3.1,8.2,0,11.3c-1.5,1.5-3.5,2.3-5.6,2.3
			c-0.9,0-1.8-0.1-2.6-0.4l-3.7-1.3L914,360c-1-2.9-0.2-6,1.9-8.2C917.4,350.3,919.4,349.4,921.5,349.4 M486,936.7l3.5,1.7
			c2.7,1.4,4.4,4.1,4.4,7.1c0,4.4-3.6,8-8,8s-8-3.6-8-8c0-3,1.7-5.8,4.4-7.1L486,936.7 M921.5,337c-5.2,0-10.4,2-14.4,6
			c-5.7,5.7-7.3,13.8-4.9,21L754.1,512.1H560.7L477,595.8v331.5c-6.7,3.3-11.4,10.3-11.4,18.3c0,11.3,9.1,20.4,20.4,20.4
			c11.3,0,20.4-9.1,20.4-20.4c0-8-4.6-14.9-11.4-18.3v-324l73.1-73.1h193.4L915,376.7c2.1,0.7,4.3,1.1,6.6,1.1c5.2,0,10.4-2,14.4-6
			c8-8,8-20.9,0-28.9C932,339,926.8,337,921.5,337L921.5,337z"/>
		<path fill="#FFFFFF" d="M717.1,185.2c-11.3,0-20.4,9.1-20.4,20.4c0,8,4.6,14.9,11.4,18.3v161.1l-57.9,55.9h-120L420.8,550.2v245.5
			c3.1-0.1,6-0.4,9.2-0.4c3.1,0,5.9,0.4,8.9,0.4v-238l98.8-98.8h119.8l68.7-66.3V223.9c6.7-3.3,11.4-10.3,11.4-18.3
			C737.5,194.3,728.4,185.2,717.1,185.2z"/>
		<path fill="#FFFFFF" d="M717.1,197.6c4.4,0,8,3.6,8,8c0,3-1.7,5.8-4.4,7.1l-3.5,1.7l-3.5-1.7c-2.7-1.4-4.4-4.1-4.4-7.1
			C709.2,201.2,712.7,197.6,717.1,197.6"/>
		<path fill="#FFFFFF" d="M220.4,395.2c2.1,0,4.1,0.8,5.6,2.3c2.1,2.1,2.9,5.3,1.9,8.2l-1.3,3.7l-3.7,1.3c-0.8,0.3-1.7,0.4-2.6,0.4
			c-2.1,0-4.1-0.8-5.6-2.3c-1.5-1.5-2.3-3.5-2.3-5.6s0.8-4.1,2.3-5.6C216.2,396.1,218.2,395.2,220.4,395.2 M372.2,912.6l3.5,1.7
			c2.7,1.4,4.4,4.1,4.4,7.1c0,4.4-3.6,8-8,8s-8-3.6-8-8c0-3,1.7-5.8,4.4-7.1L372.2,912.6 M220.4,382.8c-5.2,0-10.4,2-14.4,6
			c-8,8-8,20.9,0,28.9c4,4,9.2,6,14.4,6c2.2,0,4.4-0.4,6.6-1.1l70.7,70.7v122.1l65.6,65.6v222.2c-6.7,3.3-11.4,10.3-11.4,18.3
			c0,11.3,9.1,20.4,20.4,20.4c11.3,0,20.4-9.1,20.4-20.4c0-8-4.6-14.9-11.4-18.3V673.4l-65.6-65.6V485.7l-76-76
			c2.4-7.1,0.8-15.3-4.9-21C230.8,384.8,225.6,382.8,220.4,382.8L220.4,382.8z"/>
		<path fill="#FFFFFF" d="M842.9,252.7c2.1,0,4.1,0.8,5.6,2.3c3.1,3.1,3.1,8.2,0,11.3c-1.5,1.5-3.5,2.3-5.6,2.3
			c-0.9,0-1.8-0.1-2.6-0.4l-3.7-1.3l-1.3-3.7c-1-2.9-0.2-6,1.9-8.2C838.8,253.6,840.8,252.7,842.9,252.7 M729.3,447.8
			c0.9,0,1.8,0.1,2.6,0.4l3.7,1.3l1.3,3.7c1,2.9,0.2,6-1.9,8.2c-1.5,1.5-3.5,2.3-5.6,2.3c-2.1,0-4.1-0.8-5.6-2.3
			c-1.5-1.5-2.3-3.5-2.3-5.6c0-2.1,0.8-4.1,2.3-5.6C725.2,448.7,727.1,447.8,729.3,447.8 M842.9,240.3c-5.2,0-10.4,2-14.4,6
			c-5.7,5.7-7.3,13.8-4.9,21l-36.4,36.4V385l-51.4,51.4c-2.1-0.7-4.3-1.1-6.6-1.1c-5.2,0-10.4,2-14.4,6c-8,8-8,20.9,0,28.9
			c4,4,9.2,6,14.4,6s10.4-2,14.4-6c5.7-5.7,7.3-13.8,4.9-21l56.7-56.7v-81.4l31.1-31.1c2.1,0.7,4.3,1.1,6.6,1.1c5.2,0,10.4-2,14.4-6
			c8-8,8-20.9,0-28.9C853.4,242.3,848.2,240.3,842.9,240.3L842.9,240.3z"/>
		<path fill="#FFFFFF" d="M979.5,421.6c4.4,0,8,3.6,8,8c0,3-1.7,5.8-4.4,7.1l-3.5,1.7l-3.5-1.7c-2.7-1.4-4.4-4.1-4.4-7.1
			C971.6,425.2,975.1,421.6,979.5,421.6 M912.5,570c0.9,0,1.8,0.1,2.6,0.4l3.7,1.3l1.3,3.7c1,2.9,0.2,6-1.9,8.2
			c-1.5,1.5-3.5,2.3-5.6,2.3c-2.1,0-4.1-0.8-5.6-2.3c-3.1-3.1-3.1-8.2,0-11.3C908.4,570.8,910.4,570,912.5,570 M979.5,409.1
			c-11.3,0-20.4,9.1-20.4,20.4c0,8,4.6,14.9,11.4,18.3v59.4L919,558.6c-2.1-0.7-4.3-1.1-6.6-1.1c-5.2,0-10.4,2-14.4,6
			c-8,8-8,20.9,0,28.9c4,4,9.2,6,14.4,6c5.2,0,10.4-2,14.4-6c5.7-5.7,7.3-13.8,4.9-21l56.7-56.7v-66.9c6.7-3.3,11.4-10.3,11.4-18.3
			C999.9,418.3,990.8,409.1,979.5,409.1L979.5,409.1z"/>
		<path fill="#FFFFFF" d="M328.1,238.4c4.4,0,8,3.6,8,8c0,3-1.7,5.8-4.4,7.1l-3.5,1.7l-3.5-1.7c-2.7-1.4-4.4-4.1-4.4-7.1
			C320.1,241.9,323.7,238.4,328.1,238.4 M368.8,583.4l3.5,1.7c2.7,1.4,4.4,4.1,4.4,7.1c0,4.4-3.6,8-8,8s-8-3.6-8-8
			c0-3,1.7-5.8,4.4-7.1L368.8,583.4 M328.1,225.9c-11.3,0-20.4,9.1-20.4,20.4c0,8,4.6,14.9,11.4,18.3v87.2l40.7,40.7V574
			c-6.7,3.3-11.4,10.3-11.4,18.3c0,11.3,9.1,20.4,20.4,20.4c11.3,0,20.4-9.1,20.4-20.4c0-8-4.6-14.9-11.4-18.3V385l-40.7-40.7v-79.7
			c6.7-3.3,11.4-10.3,11.4-18.3C348.5,235.1,339.3,225.9,328.1,225.9L328.1,225.9z"/>
		<path fill="#FFFFFF" d="M246.6,299.4c4.4,0,8,3.6,8,8c0,3-1.7,5.8-4.4,7.1l-3.5,1.7l-3.5-1.7c-2.7-1.4-4.4-4.1-4.4-7.1
			C238.7,303,242.2,299.4,246.6,299.4 M293.3,386.8c2.1,0,4.1,0.8,5.6,2.3c3.1,3.1,3.1,8.2,0,11.3c-1.5,1.5-3.5,2.3-5.6,2.3
			c-2.1,0-4.1-0.8-5.6-2.3c-2.1-2.1-2.9-5.3-1.9-8.2l1.3-3.7l3.7-1.3C291.6,386.9,292.4,386.8,293.3,386.8 M246.6,287
			c-11.3,0-20.4,9.1-20.4,20.4c0,8,4.6,14.9,11.4,18.3v26.1l36.4,36.4c-2.4,7.1-0.8,15.3,4.9,21c4,4,9.2,6,14.4,6
			c5.2,0,10.4-2,14.4-6c8-8,8-20.9,0-28.9c-4-4-9.2-6-14.4-6c-2.2,0-4.4,0.4-6.6,1.1l-31.1-31.1v-18.6c6.7-3.3,11.4-10.3,11.4-18.3
			C267,296.1,257.9,287,246.6,287L246.6,287z"/>
		<path fill="#FFFFFF" d="M409.5,197.6c4.4,0,8,3.6,8,8c0,3-1.7,5.8-4.4,7.1l-3.5,1.7l-3.5-1.7c-2.7-1.4-4.4-4.1-4.4-7.1
			C401.5,201.2,405.1,197.6,409.5,197.6 M613,360.5c4.4,0,8,3.6,8,8s-3.6,8-8,8c-3,0-5.8-1.7-7.1-4.4l-1.7-3.5l1.7-3.5
			C607.3,362.2,610,360.5,613,360.5 M409.5,185.2c-11.3,0-20.4,9.1-20.4,20.4c0,8,4.6,14.9,11.4,18.3v46.5l107.1,107.1h87.2
			c3.3,6.7,10.3,11.4,18.3,11.4c11.3,0,20.4-9.1,20.4-20.4c0-11.3-9.1-20.4-20.4-20.4c-8,0-14.9,4.6-18.3,11.4H515l-96.5-96.5v-39
			c6.7-3.3,11.4-10.3,11.4-18.3C429.9,194.3,420.8,185.2,409.5,185.2L409.5,185.2z"/>
		<path fill="#FFFFFF" d="M557.9,150.9c2.1,0,4.1,0.8,5.6,2.3c1.5,1.5,2.3,3.5,2.3,5.6s-0.8,4.1-2.3,5.6c-1.5,1.5-3.5,2.3-5.6,2.3
			c-0.9,0-1.8-0.1-2.6-0.4l-3.7-1.3l-1.3-3.7c-1-2.9-0.2-6,1.9-8.2C553.8,151.8,555.8,150.9,557.9,150.9 M633.4,279c4.4,0,8,3.6,8,8
			s-3.6,8-8,8c-3,0-5.8-1.7-7.1-4.4l-1.7-3.5l1.7-3.5C627.6,280.7,630.3,279,633.4,279 M557.9,138.5c-5.2,0-10.4,2-14.4,6
			c-5.7,5.7-7.3,13.8-4.9,21l-60.5,60.5l70.1,70.1h66.9c3.3,6.7,10.3,11.4,18.3,11.4c11.3,0,20.4-9.1,20.4-20.4
			c0-11.3-9.1-20.4-20.4-20.4c-8,0-14.9,4.6-18.3,11.4h-59.4l-52-52l47.7-47.7c2.1,0.7,4.3,1.1,6.6,1.1c5.2,0,10.4-2,14.4-6
			c8-8,8-20.9,0-28.9C568.4,140.5,563.2,138.5,557.9,138.5L557.9,138.5z"/>
		<path fill="#FFFFFF" d="M659.7,150.9c2.1,0,4.1,0.8,5.6,2.3c3.1,3.1,3.1,8.2,0,11.3c-1.5,1.5-3.5,2.3-5.6,2.3
			c-0.9,0-1.8-0.1-2.6-0.4l-3.7-1.3l-1.3-3.7c-1-2.9-0.2-6,1.9-8.2C655.6,151.8,657.6,150.9,659.7,150.9 M607.1,203.5
			c0.9,0,1.8,0.1,2.6,0.4l3.7,1.3l1.3,3.7c1,2.9,0.2,6-1.9,8.2c-1.5,1.5-3.5,2.3-5.6,2.3c-2.1,0-4.1-0.8-5.6-2.3
			c-1.5-1.5-2.3-3.5-2.3-5.6s0.8-4.1,2.3-5.6C603,204.4,605,203.5,607.1,203.5 M659.7,138.5c-5.2,0-10.4,2-14.4,6
			c-5.7,5.7-7.3,13.8-4.9,21l-26.7,26.7c-2.1-0.7-4.3-1.1-6.6-1.1c-5.2,0-10.4,2-14.4,6c-8,8-8,20.9,0,28.9c4,4,9.2,6,14.4,6
			c5.2,0,10.4-2,14.4-6c5.7-5.7,7.3-13.8,4.9-21l26.7-26.7c2.1,0.7,4.3,1.1,6.6,1.1c5.2,0,10.4-2,14.4-6c8-8,8-20.9,0-28.9
			C670.2,140.5,664.9,138.5,659.7,138.5L659.7,138.5z"/>
		<path fill="#FFFFFF" d="M423.9,354.5c2.1,0,4.1,0.8,5.6,2.3c2.1,2.1,2.9,5.3,1.9,8.2l-1.3,3.7l-3.7,1.3c-0.8,0.3-1.7,0.4-2.6,0.4
			c-2.1,0-4.1-0.8-5.6-2.3c-3.1-3.1-3.1-8.2,0-11.3C419.8,355.4,421.8,354.5,423.9,354.5 M423.9,447.8c0.9,0,1.8,0.1,2.6,0.4
			l3.7,1.3l1.3,3.7c1,2.9,0.2,6-1.9,8.2c-1.5,1.5-3.5,2.3-5.6,2.3c-2.1,0-4.1-0.8-5.6-2.3c-3.1-3.1-3.1-8.2,0-11.3
			C419.8,448.7,421.8,447.8,423.9,447.8 M423.9,342.1c-5.2,0-10.4,2-14.4,6c-8,8-8,20.9,0,28.9c4,4,9.2,6,14.4,6
			c2.2,0,4.4-0.4,6.6-1.1l10.7,10.7v33.2l-10.7,10.7c-2.1-0.7-4.3-1.1-6.6-1.1c-5.2,0-10.4,2-14.4,6c-8,8-8,20.9,0,28.9
			c4,4,9.2,6,14.4,6c5.2,0,10.4-2,14.4-6c5.7-5.7,7.3-13.8,4.9-21l16-16V385l-16-16c2.4-7.1,0.8-15.3-4.9-21
			C434.4,344.1,429.2,342.1,423.9,342.1L423.9,342.1z"/>
		<path fill="#FFFFFF" d="M904,476.7c2.1,0,4.1,0.8,5.6,2.3c3.1,3.1,3.1,8.2,0,11.3c-1.5,1.5-3.5,2.3-5.6,2.3
			c-0.9,0-1.8-0.1-2.6-0.4l-3.7-1.3l-1.3-3.7c-1-2.9-0.2-6,1.9-8.2C899.9,477.5,901.9,476.7,904,476.7 M613.1,584.4
			c3,0,5.8,1.7,7.1,4.4l1.7,3.5l-1.7,3.5c-1.4,2.7-4.1,4.4-7.1,4.4c-4.4,0-8-3.6-8-8S608.7,584.4,613.1,584.4 M904,464.2
			c-5.2,0-10.4,2-14.4,6c-5.7,5.7-7.3,13.8-4.9,21l-92.1,92.1H631.4c-3.3-6.7-10.3-11.4-18.3-11.4c-11.3,0-20.4,9.1-20.4,20.4
			c0,11.3,9.1,20.4,20.4,20.4c8,0,14.9-4.6,18.3-11.4h168.6l97.4-97.4c2.1,0.7,4.3,1.1,6.6,1.1c5.2,0,10.4-2,14.4-6
			c8-8,8-20.9,0-28.9C914.5,466.2,909.2,464.2,904,464.2L904,464.2z"/>
		<path fill="#FFFFFF" d="M220.4,497c2.1,0,4.1,0.8,5.6,2.3c2.1,2.1,2.9,5.3,1.9,8.2l-1.3,3.7l-3.7,1.3c-0.8,0.3-1.7,0.4-2.6,0.4
			c-2.1,0-4.1-0.8-5.6-2.3c-3.1-3.1-3.1-8.2,0-11.3C216.2,497.9,218.2,497,220.4,497 M246.6,583.4l3.5,1.7c2.7,1.4,4.4,4.1,4.4,7.1
			c0,4.4-3.6,8-8,8c-4.4,0-8-3.6-8-8c0-3,1.7-5.8,4.4-7.1L246.6,583.4 M220.4,484.6c-5.2,0-10.4,2-14.4,6c-8,8-8,20.9,0,28.9
			c4,4,9.2,6,14.4,6c2.2,0,4.4-0.4,6.6-1.1l10.7,10.7v39c-6.7,3.3-11.4,10.3-11.4,18.3c0,11.3,9.1,20.4,20.4,20.4
			s20.4-9.1,20.4-20.4c0-8-4.6-14.9-11.4-18.3v-46.5l-16-16c2.4-7.1,0.8-15.3-4.9-21C230.8,486.6,225.6,484.6,220.4,484.6
			L220.4,484.6z"/>
	</g>
	<g>
		<g>
			<polygon fill="#FFFFFF" points="438.2,790.8 464.2,745.8 446.9,735.8 426.4,771.4 425.6,771.9 405.2,736.5 388,746.4 414,791.4 
				264,1051.1 365.4,1051.1 426.3,945.7 486.7,1050.5 588.1,1050.5 			"/>
		</g>
	</g>
</g>
</svg>
