<?xml version="1.0" encoding="utf-8"?>
<!-- Generator: Adobe Illustrator 18.1.0, SVG Export Plug-In . SVG Version: 6.00 Build 0)  -->
<!DOCTYPE svg PUBLIC "-//W3C//DTD SVG 1.1//EN" "http://www.w3.org/Graphics/SVG/1.1/DTD/svg11.dtd">
<svg version="1.1" id="Layer_1" xmlns="http://www.w3.org/2000/svg" xmlns:xlink="http://www.w3.org/1999/xlink" x="0px" y="0px"
	 viewBox="0 0 600 600" enable-background="new 0 0 600 600" xml:space="preserve">
<g>
	<g>
		<g>
			<path fill="#FFFFFF" d="M312.6,283.3c-0.3-11.3-1.7-22.7-3.9-34c-12.9-2.1-26.1-6.3-39.3-12.5c-10.6-4.9-19.7-10.6-28.9-17.6
				C257.1,245.6,282.3,268.9,312.6,283.3z"/>
			<path fill="#FFFFFF" d="M469.3,231.8c0-1.4,0.7-2.8,0.7-3.5c14.1-54.9-19.7-119.6-76.7-153.4c24.6,33.8,35.9,74.6,26,110.5
				c-0.7,3.5-2.1,6.3-2.8,9.1c-1.4-0.7-2.8-1.4-4.9-2.8c0,0-56.3-35.2-117.5-96.4c-1.4-1.4,32.4,49.3,71.8,90.1
				c-18.3-10.6-69.7-47.2-101.3-76.7c4.2,6.3,8.4,12.7,14.1,19c26.7,34.5,61.9,76.7,104.2,109.1c-6.1,3.8-12.7,6.8-19.8,9.1
				c10.1,16.6,18.2,34,24.2,51.7c14.3-1.4,27.6-5.3,39.2-11.6c12-7.7,44.3-19.7,60.5,12C489.7,304.3,497.4,267,469.3,231.8z"/>
		</g>
	</g>
</g>
<path fill="#FFFFFF" d="M378.7,373.9L378.7,373.9c0-1.7,0.9-3.4,0.9-4.3c17-66.4-23.8-144.7-92.8-185.6
	c29.8,40.9,43.4,90.2,31.5,133.6c-0.9,4.3-2.6,7.7-3.4,11.1c-1.7-0.9-3.4-1.7-6-3.4c0,0-68.1-42.6-142.2-116.6
	c-1.7-1.7,39.2,59.6,86.8,109c-22.1-12.8-84.3-57-122.6-92.8c5.1,7.7,10.2,15.3,17,23c32.3,41.7,74.9,92.8,126,131.9
	c-35.8,22.1-86.8,23.8-137,0c-12.8-6-23.8-12.8-34.9-21.3c21.3,34,54.5,63.8,94.5,80.9c47.7,20.4,95.3,18.7,130.2,0l0,0
	c14.5-9.4,53.6-23.8,73.2,14.5C403.4,461.5,412.7,416.4,378.7,373.9z"/>
<g>
	<g>
		<path fill="#FFFFFF" d="M198.3,475.6c2.1-8.1,1.7-16.6-0.7-25c-6.4-2-12.9-4.3-19.4-7c0.2,4.7-0.2,9.3-1.4,13.8
			c-0.3,1.5-0.9,2.7-1.2,3.9c-0.6-0.3-1.2-0.6-2.1-1.2c0,0-23.9-14.9-49.8-40.9c-0.6-0.6,13.7,20.9,30.4,38.2
			c-7.8-4.5-29.5-20-43-32.5c1.8,2.7,3.6,5.4,6,8.1c11.3,14.6,26.2,32.5,44.1,46.2c-12.5,7.8-30.4,8.4-48,0
			c-4.5-2.1-8.4-4.5-12.2-7.5c7.5,11.9,19.1,22.4,33.1,28.3c16.7,7.2,33.4,6.6,45.6,0c5.1-3.3,18.8-8.4,25.7,5.1
			c1.2,2.7,4.5-13.1-7.5-28C198,476.5,198.3,475.9,198.3,475.6z"/>
	</g>
</g>
<g>
	<g>
		<path fill="#FFFFFF" d="M120.3,305.3c-2.6-1.2-4.8-2.6-7-4.3c4.3,6.8,10.9,12.8,18.9,16.2c9.5,4.1,19.1,3.8,26.1,0
			c2.9-1.9,10.7-4.8,14.7,2.9c0.7,1.5,2.6-7.5-4.3-16c0-0.3,0.2-0.7,0.2-0.9c1-4.1,1-8.3,0-12.6c-5.1-6.1-10-12.1-14.7-18
			c3.1,6.6,4.1,13.7,2.4,20.2c-0.2,0.9-0.5,1.5-0.7,2.2c-0.3-0.2-0.7-0.3-1.2-0.7c0,0-13.6-8.5-28.5-23.4
			c-0.3-0.3,7.8,11.9,17.4,21.8c-4.4-2.6-16.9-11.4-24.6-18.6c1,1.5,2,3.1,3.4,4.6c6.5,8.4,15,18.6,25.2,26.4
			C140.6,309.7,130.4,310.1,120.3,305.3z"/>
	</g>
</g>
</svg>
