<?xml version="1.0" encoding="utf-8"?>
<!-- Generator: Adobe Illustrator 18.1.0, SVG Export Plug-In . SVG Version: 6.00 Build 0)  -->
<!DOCTYPE svg PUBLIC "-//W3C//DTD SVG 1.1//EN" "http://www.w3.org/Graphics/SVG/1.1/DTD/svg11.dtd">
<svg version="1.1" id="Layer_1" xmlns="http://www.w3.org/2000/svg" xmlns:xlink="http://www.w3.org/1999/xlink" x="0px" y="0px"
	 viewBox="0 0 500 500" enable-background="new 0 0 500 500" xml:space="preserve">
<rect x="-2.6" y="-2" fill="#0000FF" width="504" height="504"/>
<g>
	<g>
		<path fill="#FFFFFF" d="M249.3,50L76.1,147.8V259v93.3L249.3,450l173.4-97.8V147.8L249.3,50z M258.3,85.7L258.3,85.7l129,72.7
			l-69.8,41.2l-59.2-33.4V85.7z M249.2,195.6l0.3-0.2l8.2-14.2l6.9,4l-10.4,18l59.8,103.6h-40.5L249.5,265l-24.3,42h-40.5
			l59.8-103.6l-10.4-18l6.9-4L249.2,195.6z M240.5,85.6v80.6l-59.2,33.4l-69.8-41.2L240.5,85.6z M102.8,173.9l60.6,35.8l-60.6,34.2
			V173.9z M396,336.7l-146.6,82.2l-146.6-82.2v-16l146.5,80.4L396,317.9V336.7z M396,293l-146.7,81.5L102.8,293v-19l146.5,82.7
			L396,274V293z M396,243.9l-60.7-34.2l60.7-35.8V243.9z"/>
	</g>
</g>
</svg>
