<?xml version="1.0" encoding="utf-8"?>
<!-- Generator: Adobe Illustrator 18.1.0, SVG Export Plug-In . SVG Version: 6.00 Build 0)  -->
<!DOCTYPE svg PUBLIC "-//W3C//DTD SVG 1.1//EN" "http://www.w3.org/Graphics/SVG/1.1/DTD/svg11.dtd">
<svg version="1.1" id="Layer_1" xmlns="http://www.w3.org/2000/svg" xmlns:xlink="http://www.w3.org/1999/xlink" x="0px" y="0px"
	 viewBox="0 0 1100 1100" enable-background="new 0 0 1100 1100" xml:space="preserve">
<g>
	<g>
		<g>
			<path fill="none" stroke="#FFFFFF" stroke-width="8.917" stroke-miterlimit="10" d="M611.7,128.8
				c-39.8,2.9-132.2,49.4-86.9,163.6c15.8,40,181.6,17.9,183.7-93.9C709.4,151.9,646.7,126.2,611.7,128.8z"/>
			<path fill="none" stroke="#FFFFFF" stroke-width="8.917" stroke-miterlimit="10" d="M844.5,545.4c-19.4,0.9-34.2,40.5-29.4,59.4
				c2.6,10.3,22.5,8.6,19.6,16.7c-4.6,13.2,30.2,22.5,36.9,8.2C905.1,559,862.3,544.8,844.5,545.4z"/>
			
				<path fill="none" stroke="#FFFFFF" stroke-width="8.917" stroke-linecap="round" stroke-linejoin="round" stroke-miterlimit="10" d="
				M478.8,894.7c-18.5,2.2-24.9,22.1-19.1,30.2c8.8,12.2,68.5,11.2,79.1-1.2c-37.8-15.3-59.1-28.2-59.1-28.2
				C479.5,895.2,479.1,894.8,478.8,894.7z"/>
			
				<path fill="none" stroke="#FFFFFF" stroke-width="8.917" stroke-linecap="round" stroke-linejoin="round" stroke-miterlimit="10" d="
				M842.9,974.5c34.5-6.9,116.6,6.9,160-106.3c1.2-3.1,2.2-6.2,3.3-9.1c15.5,0.5,35-5.2,40.2-13.7c7-11.8-14.4-20.4-30.4-23
				c17.5-88.4-6.5-176.3-35.9-241.4c-38.8-86.2-36.9-183.7-34.2-200c11.7-69.5,2.7-121.7-17.3-160.9c19.6-16.7,61.3-59.2,14.9-83.1
				c-18.7-9.6-43.6,0-77.1,8.6c-1.9,0.5-1.7,1.5-2.6,3.1c-69.9-47-156.6-47.4-156.6-47.4s-143.5-14.8-212.5,97l2.4-9.1
				c0,0-78.6-13.7-98,69.9c-14.1,60.4,13.4,76.1,31.9,80c-6.5,39.7-8.2,86-3.1,140.1c11,117.8-72.3,312.3,49.6,415.5
				c21.1,17.9,136.1,63.7,256.3,77.6"/>
			<path fill="none" stroke="#FFFFFF" stroke-width="8.917" stroke-miterlimit="10" d="M816.5,945.1c-46.9-8.9-84.6,13.2-80.5,34.3
				c3.6,18.4,71.2,13.9,98.4,10.3C846.4,988.1,828.4,947.4,816.5,945.1z"/>
			<path fill="none" stroke="#03324B" stroke-width="10.2888" stroke-miterlimit="10" d="M488.8,304.2"/>
			<path fill="none" stroke="#03324B" stroke-width="5.4874" stroke-miterlimit="10" d="M508.8,363.6c-0.5-1.9-1.2-3.6-1.9-4.5
				c-5.2-6.2-32.1,4.3-35.9,6c-1.5,0.7-2.6,3.3-3.1,6.9"/>
			<path fill="#FFFFFF" d="M909.4,148.3c-33,7.4-34.5,24-25.9,28.7c5,2.7,1.4-14.2,23.9-6.7c9.1,2.9-4.3,25.1,21.3,0.3
				C942.2,157.4,916.6,146.8,909.4,148.3z"/>
			<path fill="none" stroke="#FFFFFF" stroke-width="8.231" stroke-miterlimit="10" d="M614.1,128.6c-40.3,2.9-133.7,50-87.9,165.5
				c16,40.3,183.7,18,185.8-94.9C712.8,152.1,649.5,125.8,614.1,128.6z"/>
			<path fill="none" stroke="#FFFFFF" stroke-width="8.231" stroke-miterlimit="10" d="M509.9,295.3c-3.8-0.7-7.6-1.2-11-1.5
				c-1,0-2.1,0.9-1.9,1.9c0.2,0.7,0,1.4-0.3,2.1c-5.7,11-30.2,39.3-43.4,36.6c-0.5-0.2-1-0.3-1.4-0.7c-3.4-1.9-7.7,0.2-8.1,3.9
				c-1.4,13.9,3.3,27,12.2,31.8c3.1,1.7,7.2,2.6,12,2.7c0.5-3.6,1.5-6.2,3.1-6.9c3.9-1.7,30.7-12.4,35.9-6c0.9,1,1.4,2.6,1.9,4.5
				c11.2-4.8,20.4-11.2,23.5-17.9C540.8,328.3,545.6,302.2,509.9,295.3z"/>
			<path fill="none" stroke="#FFFFFF" stroke-width="8.231" stroke-miterlimit="10" d="M468,372.2c-1.5,10,0.9,27.5,8.9,30.7
				c30.2,12.9,35.7-24.7,32.1-39.3"/>
			<path fill="#FFFFFF" d="M425.9,228.7c-6.2-0.2-12,7.7-16.3,18.2c1.5-2.7,3.4-5,5.2-4.3c3.4,1.2,1.7,11.7-0.5,14.6
				c-3.1,4.3-8.1,5.3-8.4,0.9c-3.4,12.2-4.8,25.2-2.9,32.4c1.5,6.2,17.5,11,24.6-6.4C432.4,271.3,444.3,229.2,425.9,228.7z"/>
			<path fill="#FFFFFF" d="M568.4,168.3c-37.6,3.4-46.7,56.7-32.8,69c7.9,7,35.4,15.1,50.1-33.3
				C590.4,188.5,582.3,166.9,568.4,168.3z M550.7,198.5c-3.6,2.7-8.2-0.2-9.3-2.2c-2.9-5.8,7.2-19.6,12.5-18.2
				C564.6,181.1,554.7,195.2,550.7,198.5z"/>
			<path fill="#FFFFFF" d="M461.3,285.5c-27,9.3-25.6,54.8-11,56.1c16.5,1.5,45.3-31.8,52.2-45C507.8,286.5,472.1,281.9,461.3,285.5
				z"/>
		</g>
		<g>
			<path fill="#FFFFFF" d="M425.5,538.6l-85.7-28.9l-16.9-34.1c-1.2-2.4-4.1-3.3-6.4-2.2c-2.4,1.2-3.3,4.1-2.2,6.4l12.7,25.5
				l-78.6-26.5l2.6-7.6c2.6-7.6,2.1-15.7-1.1-22.9c-3.3-7.2-9.2-12.6-16.5-15.1l-22.7-7.7c-7-2.4-14.6-1.8-21.4,1.6
				c-7.3,3.6-12.9,10.2-15.6,18l-2.8,8.4l-7.8-2.6l2.8-8.4c2.6-7.6,2.1-15.7-1.1-22.9c-3.3-7.2-9.2-12.6-16.5-15.1l-22.7-7.7
				c-7-2.3-14.6-1.8-21.4,1.6c-7.3,3.6-12.9,10.2-15.6,18l-2.6,7.6l-18-6.1c-2.5-0.8-5.2,0.5-6.1,3c-0.8,2.5,0.5,5.2,3,6.1l18,6.1
				l-2.6,7.6c-5.3,15.9,2.5,32.9,17.6,38l22.7,7.7c7,2.4,14.6,1.8,21.4-1.6c7.3-3.6,12.9-10.2,15.6-18l2.3-6.8l7.8,2.6l-2.3,6.7
				c-5.3,15.9,2.5,32.9,17.6,38l22.7,7.7c7,2.4,14.6,1.8,21.4-1.6c7.3-3.6,12.9-10.2,15.6-18l2.6-7.6l24.9,8.4l-5.3,2.6
				c-2.4,1.2-3.3,4.1-2.2,6.4c1.2,2.4,4.1,3.3,6.4,2.2l12.9-6.4c0.3-0.1,0.5-0.4,0.7-0.6l96.6,32.5l-18.1,9
				c-2.4,1.2-3.3,4.1-2.2,6.4c1.2,2.4,4.1,3.3,6.4,2.2l25.8-12.8c0.3-0.1,0.5-0.4,0.7-0.6l30.5,10.3c1.3,0.4,2.6,0.3,3.7-0.3
				c1.1-0.6,2-1.5,2.4-2.8C429.3,542.1,428,539.4,425.5,538.6z M105.8,409c0.2,17.2-5.8,34-16.8,47.3c-1-3.9-0.9-8.1,0.5-12.2
				l2.6-7.6c1,0.2,2.1,0.1,3-0.3c1.1-0.6,2-1.5,2.4-2.8c0.8-2.3-0.4-4.7-2.5-5.7l2.6-7.7C99.2,415.3,102.1,411.6,105.8,409z
				 M148.6,463.9c-1.8,5.5-5.8,10-10.7,12.4c-4.5,2.2-9.5,2.6-14.1,1.1l-22.7-7.6c-2.8-1-5.3-2.6-7.2-4.7c0.2-0.2,0.5-0.3,0.7-0.6
				c14.4-16.1,21.8-37.6,20.7-59.2c2.4-0.2,4.8,0.1,7.2,0.8l22.7,7.7c4.8,1.6,8.6,5.1,10.8,10c2.2,4.9,2.5,10.5,0.7,15.8
				L148.6,463.9z M190.9,437.6c0.2,17.2-5.8,34-16.8,47.3c-1-3.9-0.9-8.1,0.5-12.2l2.3-6.9c1,0.1,1.9,0,2.7-0.4
				c1.1-0.6,2-1.5,2.4-2.8c0.7-2.2-0.2-4.5-2.2-5.6l2.9-8.5C184.2,444,187.1,440.2,190.9,437.6z M233.6,492.5
				c-1.8,5.5-5.8,10-10.7,12.4c-4.5,2.2-9.5,2.6-14.1,1.1l-22.7-7.7c-2.8-1-5.3-2.6-7.2-4.7c0.2-0.2,0.5-0.3,0.7-0.6
				c14.4-16.1,21.8-37.6,20.7-59.2c2.4-0.2,4.8,0.1,7.2,0.8l22.7,7.7c4.8,1.6,8.6,5.1,10.8,10c2.2,4.9,2.5,10.5,0.7,15.8l-4,12
				c0,0.1,0,0.1-0.1,0.1s0,0.1,0,0.1L233.6,492.5z"/>
		</g>
		<path fill="#FFFFFF" d="M156.6,817.8c-0.5,0-1-0.1-1.4-0.1c-34.4-15.9-56.5-50.3-55.7-87.5c0.4-33,19.5-63.9,48.9-80.5
			c15.6-12.5,47.2-38.5,49.4-75.2c0.1-1.4,1.2-2.8,2.7-3.1c1.5-0.4,3.4,0.3,3.7,1.8c2.6,3.1,5.2,6.7,8.7,11.3
			c7.8,10.7,17.3,23.5,24.1,39.8l0,0.5c5.4,21.5,7.1,52.3-14.7,75.7l0,0l0.4,0.5l0,0c1-0.4,22.3-12.4,32.3-38.4
			c0.6-1.4,1.6-2.3,3.1-2.1c1.5-0.4,2.8,0.7,3.2,1.7l4.3,6.6c18.5,21.2,24.9,47.6,24.3,65.2c-0.6,34.9-20.6,66.1-51.5,82.2
			c-1.5,0.8-3.4,0.2-4.3-0.8s-1.2-3-0.1-4.3c5-7.2,7.1-15.2,7.3-23.8c0.2-8.1-2.6-20.8-11.4-30.6c0,0,0-0.5-0.4-0.5
			c-11.5-17.7-26.3-42.4-30.5-50l-1.6-4l1.2,3.4c2.6,19.8-22.7,40.1-23.8,41c-15.4,10.2-23.2,22.9-23.5,38.2
			c-0.3,9.5,2.7,19.4,8.8,27.1c0.8,1.5,0.7,2.9,0.1,4.3C158.6,817.5,157.6,817.9,156.6,817.8z M203.6,584.6
			c-6.9,35.3-37.5,59.9-51.5,71.2l-0.5,0.4c-27.4,15.4-44.8,44-45.5,74.5c-0.7,30.6,15.2,59.2,40.9,75.2c-2.8-6.5-4.2-13.3-4-20.4
			c0.5-17.6,9-32.2,26.4-43.7c6.2-5.2,22.6-21.5,20.8-34.1c-0.7-3.4,1.6-7,5-8.2c3.5-1.1,7.2,0.1,8.9,3.2c4.7,7.6,19,32.2,30.5,50
			c9.6,11.3,13.3,25.5,12.9,35.1c0,5.7-0.9,10.9-2.8,16c22.6-15.8,36.9-41.3,37.3-69.5c0.4-16.2-5.7-40.7-22.8-60.3
			c0,0,0-0.5-0.4-0.5l-0.9-1c-11.7,23.9-32,35-32.5,35.5c-3,1.7-7.3,0.8-9.5-1.8c-2.2-3.1-2.3-6.9,0.3-9.5
			c19.6-20.8,18.2-49.1,13.2-69.2c-6.4-15.4-15.9-28.1-23.3-38.3C205.8,587.2,204.5,585.6,203.6,584.6z"/>
	</g>
	<path fill="#FFFFFF" d="M338.9,932.3c-4.3-5.3-9.7-9.4-15.8-12l-28.3-13l39.5-19.5l1.4-0.7l0.8-1.4c17.9-29.9,0.5-55.2-0.2-56.2
		l-0.5-0.6c-18.5-20-45.4-11.4-46.5-11l-91.8,44.7L95,815.4l-1.5-0.7l-1.6,0.2c-34.5,4.9-43.2,34.3-43.6,35.5l-0.1,0.7
		c-3.9,27,19.7,42.4,20.7,43.1l32.5,15.2l-26.3,12.8c-16,6-27.4,21.4-27.4,39.4c0,23.2,18.9,42.1,42.1,42.1c6.6,0,12.7-1.5,18.3-4.2
		l0,0l1.4-0.7c0.1-0.1,0.3-0.1,0.4-0.2l88.6-43.9l86,40.1c6.4,3.9,13.9,6,21.6,6c9.6,0,19-3.3,26.5-9.4c8.8-7.1,14.2-17.1,15.4-28.3
		C349.3,952,346,941,338.9,932.3z M74.5,884.9c-2.4-1.6-18.1-13.1-15.6-31.8c0.9-2.9,8.3-23,33-27.2l93.1,42.8l-71,34.6L74.5,884.9z
		 M105,989.1l-1.5,0.8c-4.1,2-8.7,3.1-13.5,3.1c-17.2,0-31.3-14-31.3-31.3c0-11.1,5.8-20.8,14.5-26.3l6.3-3.1
		c3.3-1.2,6.8-1.8,10.4-1.8c17.2,0,31.3,14,31.3,31.3C121.2,973.5,114.6,983.7,105,989.1z M101.9,921.3l191.2-93.2
		c2.6-0.8,21.6-5.8,34.5,7.8c1.7,2.6,12.6,20.9,0.4,42.8l-198.9,98.4c1.9-4.8,3-10,3-15.5C132.1,942.6,119.3,926.5,101.9,921.3z
		 M211.1,948.7l71.2-35.2l11.3,5.2c-5,1.6-9.8,4.1-13.9,7.4c-14.8,12-19.3,32-12.4,48.8L211.1,948.7z M337.3,962.1
		c-0.9,8.3-4.9,15.8-11.4,21c-5.6,4.6-12.4,7-19.6,7c-3.4,0-6.7-0.6-9.8-1.6l-6.8-3.2c-2.9-1.8-5.5-4.1-7.7-6.8
		c-10.8-13.4-8.8-33.1,4.6-44c5.6-4.6,12.4-7,19.7-7c4.4,0,8.6,0.9,12.4,2.6l1,0.5l0,0c4.1,2,7.9,4.9,10.8,8.6
		C335.7,945.6,338.2,953.8,337.3,962.1z"/>
</g>
</svg>
