<?xml version="1.0" encoding="utf-8"?>
<!-- Generator: Adobe Illustrator 18.1.0, SVG Export Plug-In . SVG Version: 6.00 Build 0)  -->
<!DOCTYPE svg PUBLIC "-//W3C//DTD SVG 1.1//EN" "http://www.w3.org/Graphics/SVG/1.1/DTD/svg11.dtd">
<svg version="1.1" id="Layer_1" xmlns="http://www.w3.org/2000/svg" xmlns:xlink="http://www.w3.org/1999/xlink" x="0px" y="0px"
	 viewBox="0 0 1100 1100" enable-background="new 0 0 1100 1100" xml:space="preserve">
<g>
	<g>
		<path fill="#FFFFFF" d="M549.8,50l-433,244.5v277.9v233.2l433,244.4l433.4-244.4V294.5L549.8,50z M572.2,139.2L894.6,321
			L720.1,424l-147.9-83.4V139.2z M430.3,505.4c-10.6-6.2-14.1-19.9-7.9-30.4s19.8-14.1,30.4-7.9l97.2,57.2l97-57.2
			c10.6-6.2,24.2-2.7,30.4,7.9c6.2,10.6,2.7,24.2-7.9,30.4l-97.4,57.4v112.3c0,12.3-9.9,22.2-22.2,22.2s-22.2-10-22.2-22.2V562.8
			L430.3,505.4z M573.1,365.8c33.3,12.8,49.9,50.2,37.2,83.5c-6.6,17.1-20.1,30.6-37.2,37.2L558,447c11.6-4.4,17.3-17.4,12.9-29
			s-17.4-17.3-29-12.9c-11.6,4.4-17.3,17.4-12.9,29c2.3,5.9,7,10.6,12.9,12.9l-15.1,39.4c-33.3-12.8-49.9-50.2-37.2-83.5
			C502.5,369.6,539.8,353,573.1,365.8z M527.8,139v201.4l-148,83.6L205.3,321L527.8,139z M183.5,359.7l151.6,89.4l-151.6,85.6V359.7
			z M916.6,766.7L550,972.3L183.5,766.7v-39.9l366.3,201.1l366.8-208.1V766.7z M916.6,657.5L549.8,861.2L183.5,657.6V610
			l366.3,206.8L916.6,610V657.5z M916.6,534.8l-151.8-85.6l151.8-89.5V534.8z"/>
	</g>
</g>
</svg>
