<?xml version="1.0" encoding="utf-8"?>
<!-- Generator: Adobe Illustrator 18.1.0, SVG Export Plug-In . SVG Version: 6.00 Build 0)  -->
<!DOCTYPE svg PUBLIC "-//W3C//DTD SVG 1.1//EN" "http://www.w3.org/Graphics/SVG/1.1/DTD/svg11.dtd">
<svg version="1.1" id="Layer_1" xmlns="http://www.w3.org/2000/svg" xmlns:xlink="http://www.w3.org/1999/xlink" x="0px" y="0px"
	 viewBox="0 0 600 600" enable-background="new 0 0 600 600" xml:space="preserve">
<g>
	<path fill="#FFFFFF" d="M537.5,285c-8.1-8.1-18.8-12.5-30.2-12.5c-15.1,0-29.2,8.1-36.8,21c-9.9,1.1-25.3,2.2-46.5,2.2
		c-12.4,0-25.7-0.4-39.6-1.1c-23.8-1.3-40.6-2.9-51.4-4.8c-9.8-1.7-12.2-3.4-12.8-3.8c0-0.1,0-0.2-0.1-0.4
		c4.2-7.2,25.1-34.3,68.5-76.1c35.4-34.1,53.6-44.4,69.7-53.4c3.8-2.1,7.4-4.1,11.1-6.4c4.2,1.4,8.6,2.1,13.2,2.1
		c23.4,0,42.4-19,42.4-42.4c0-23.4-19-42.4-42.4-42.4c-23.4,0-42.4,19-42.4,42.4c0,3.8,0.5,7.6,1.6,11.3
		c-15.3,18.4-48.3,57.3-71.5,79.2c-23.7,22.3-57.8,47-74.3,58.5c-5.2-2.2-11.9-3.8-16.4-4.1c-11.8-12.7-35.6-39.8-45.4-60.5
		c-21.1-44.5-28-67.2-30.3-77.7c4.3-6.4,6.5-13.7,6.5-21.5c0-21.4-17.4-38.8-38.8-38.8c-10.4,0-20.1,4-27.4,11.4
		c-7.3,7.3-11.4,17.1-11.4,27.4c0,20.4,15.8,37.2,35.9,38.7c5.4,5.9,23.7,27.3,46.4,71.9c18.3,36,25,59,27.3,70.6
		c-1.9,3.4-3.2,7.1-4.1,10.9c-9.9,1.1-31.3,2.8-65.4,2.8c-33.4,0-46.8-2.7-51.5-4.1c-3.3-15.5-17.2-27.2-33.4-27.2
		c-9.1,0-17.7,3.5-24.1,10c-6.4,6.4-10,15-10,24.1c0,9.1,3.4,17.7,9.6,24.1c6.3,6.5,14.8,10.1,23.9,10.1c13,0,26.4-11,29.6-18.4
		c0.2-0.4,0.3-0.7,0.4-0.9c0.5-0.1,1.4-0.2,3.2-0.2c3.1,0,7.8,0.3,14.3,0.7c9.2,0.6,21.7,1.4,39.9,2c34.8,1.2,52.3,3.9,60.8,5.8
		c-8.2,10.9-27.1,34.3-62,71c-36,37.8-60.7,53.6-71.5,59.3c-3.2-0.8-6.4-1.1-9.7-1.1c-11.3,0-21.9,4.4-29.9,12.4
		c-8,8-12.4,18.6-12.4,29.9c0,11.3,4.4,21.9,12.4,30c8,8,18.6,12.4,29.9,12.4c11.3,0,22-4.4,30-12.4c8-8,12.4-18.6,12.4-29.9
		c0-4.1-0.6-8.2-1.8-12.2c5.2-12.7,20-41.3,57.7-74c50.9-44.2,73.3-62.4,74.8-63.7c0.7-0.5,2.8-1.8,4.4-2.2c0.1,0,0.1,0,0.2,0
		c3.1,0,8.3,4.2,10.8,7c0.2,0.2,18,21.5,44.2,83.9c12,28.7,18.3,46.5,21.5,57c-7.9,6.5-12.5,16.1-12.5,26.5
		c0,19,15.5,34.6,34.5,34.6h0c19,0,34.5-15.5,34.5-34.6c0-9.2-3.6-17.9-10.1-24.4c-6.2-6.3-14.5-9.8-23.3-10.1
		c-6-11.4-15.1-29.8-27.1-56.9c-24.6-55.6-29.1-96.8-28.3-101.3c0.3-1.1,0.4-1.4,2-2.1c3.5-1.4,10.4-2.2,20.6-2.2
		c11.2,0,26.3,0.9,46.4,2.6c42.8,3.8,74.3,10.4,85.1,17.8c7,15.2,22,24.9,38.9,24.9c23.6,0,42.7-19.2,42.7-42.7
		C550,303.8,545.6,293.1,537.5,285z"/>
	<g>
		<g>
			<polygon fill="#666860" points="280.6,276.3 284.4,269.7 281.9,268.2 278.9,273.4 278.8,273.5 275.8,268.3 273.3,269.8 
				277,276.3 255.2,314.2 270,314.2 278.8,298.9 287.7,314.2 302.5,314.2 			"/>
		</g>
	</g>
</g>
</svg>
