<?xml version="1.0" encoding="utf-8"?>
<!-- Generator: Adobe Illustrator 18.1.0, SVG Export Plug-In . SVG Version: 6.00 Build 0)  -->
<!DOCTYPE svg PUBLIC "-//W3C//DTD SVG 1.1//EN" "http://www.w3.org/Graphics/SVG/1.1/DTD/svg11.dtd">
<svg version="1.1" id="Layer_1" xmlns="http://www.w3.org/2000/svg" xmlns:xlink="http://www.w3.org/1999/xlink" x="0px" y="0px"
	 viewBox="0 0 1100 639.5" enable-background="new 0 0 1100 639.5" xml:space="preserve">
<g>
	<g>
		<g>
			<path fill="#C0C0C0" d="M771.3,460.1c-71.4,0-129.3-64-129.3-143c0-79,57.9-143,129.3-143c59.8,0,110,44.8,124.8,105.8l153.9-59
				c-27.7-72.1-84.6-129-156.7-156.7C778,19.9,651,59.4,579.5,152.8c33.3,47.2,52.8,104.8,52.8,167c0,61.5-19.2,118.6-51.9,165.6
				c29.5,38.1,69.4,68.8,117.7,87.4c140.4,53.9,297.9-16.2,351.8-156.7l-154.5-59.3C880,416.4,830.3,460.1,771.3,460.1z"/>
		</g>
	</g>
	<g>
		<g>
			<g>
				<g>
					<path fill="#C0C0C0" d="M864.2,421.7c3.8-8.3,3.8-18.5-1-27.1c-7.7-13.9-24.7-18.6-37.9-10.6c-13.3,8-17.8,25.7-10.2,39.6
						c4.8,8.7,13.2,13.8,22.1,14.4c-14,6.1-29.4,9.5-45.6,9.5V477c54.4,0,102.1-31,127.6-76.9l-24.5-14.8
						C887,399.4,876.6,411.8,864.2,421.7z"/>
					<path fill="#C0C0C0" d="M791.7,447.5c16.1,0,31.5-3.4,45.6-9.5c-8.9-0.7-17.3-5.8-22.1-14.4c-2.5-4.6-3.7-9.5-3.7-14.5
						c0-10,5-19.8,13.9-25.1c13.3-8,30.3-3.3,37.9,10.6c2.5,4.6,3.7,9.5,3.7,14.4c0,4.4-1,8.7-2.8,12.6
						c12.3-9.9,22.7-22.3,30.6-36.4l24.5,14.8C893.8,446,846.1,477,791.7,477V447.5 M786,441.6v5.9V477v5.9h5.7
						c54.4,0,105.1-30.6,132.5-79.8l2.8-5.1l-4.9-3l-24.5-14.8l-4.9-2.9l-2.8,5.1c-4.8,8.7-10.7,16.7-17.4,23.8
						c-0.4-5.1-1.9-10-4.4-14.5c-9.2-16.7-29.7-22.4-45.7-12.8c-10.3,6.2-16.7,17.8-16.7,30.2c0,6.1,1.5,12.1,4.5,17.4
						c2.5,4.5,5.9,8.4,9.9,11.3c-9.3,2.5-18.8,3.8-28.5,3.8H786L786,441.6z"/>
				</g>
				<g>
					<path fill="#C0C0C0" d="M791.7,169.5V199c16.1,0,31.5,3.4,45.6,9.5c-8.9,0.7-17.3,5.8-22.1,14.4c-7.7,13.9-3.1,31.6,10.2,39.6
						c13.3,8,30.3,3.3,37.9-10.6c4.8-8.6,4.8-18.7,1-27.1c12.3,9.9,22.7,22.3,30.6,36.4l24.5-14.8
						C893.8,200.4,846.1,169.5,791.7,169.5z"/>
					<path fill="#C0C0C0" d="M791.7,169.5c54.4,0,102.1,31,127.6,76.9l-24.5,14.8c-7.8-14.1-18.2-26.5-30.6-36.4
						c1.8,3.9,2.8,8.3,2.8,12.6c0,4.9-1.2,9.9-3.7,14.4c-7.7,13.9-24.7,18.6-37.9,10.6c-8.9-5.4-13.9-15.1-13.9-25.1
						c0-4.9,1.2-9.9,3.7-14.5c4.8-8.7,13.2-13.8,22.1-14.4c-14.1-6.1-29.4-9.5-45.6-9.5V169.5 M786,163.6v5.9V199v5.9h5.7
						c9.7,0,19.2,1.3,28.5,3.8c-4,2.9-7.4,6.7-9.9,11.3c-2.9,5.3-4.5,11.3-4.5,17.4c0,12.4,6.4,24,16.7,30.2
						c7.7,4.7,16.7,5.9,25.4,3.5c8.6-2.4,15.8-8.2,20.3-16.2c2.5-4.4,4-9.4,4.4-14.5c6.7,7.1,12.5,15.1,17.4,23.8l2.8,5.1l4.9-2.9
						l24.5-14.8l4.9-3l-2.8-5.1c-27.4-49.2-78.1-79.8-132.5-79.8H786L786,163.6z"/>
				</g>
				<g>
					<path fill="#C0C0C0" d="M673.6,339.5c5,7.7,13.4,12.7,23,12.7c15.3,0,27.8-13,27.8-29c0-16-12.4-29-27.8-29
						c-9.6,0-18,5.1-23,12.7c2.1-16.5,7.3-32,15-45.9l-24.5-14.8c-12.6,22.6-19.8,48.9-19.8,76.9c0,28,7.2,54.2,19.8,76.9l24.5-14.8
						C680.9,371.5,675.7,356,673.6,339.5z"/>
					<path fill="#C0C0C0" d="M644.3,323.2c0-28,7.2-54.2,19.8-76.9l24.5,14.8c-7.7,13.8-12.9,29.3-15,45.9c5-7.7,13.4-12.7,23-12.7
						c15.3,0,27.8,13,27.8,29c0,16-12.4,29-27.8,29c-9.6,0-18-5.1-23-12.7c2.1,16.5,7.3,32,15,45.9l-24.5,14.8
						C651.5,377.5,644.3,351.2,644.3,323.2 M638.7,323.2c0,28,7.1,55.6,20.5,79.8l2.8,5.1l4.9-2.9l24.5-14.8l4.9-3l-2.8-5.1
						c-4.9-8.7-8.6-18-11.1-27.6c4.4,2.2,9.3,3.3,14.3,3.3c18.4,0,33.4-15.6,33.4-34.9c0-19.2-15-34.9-33.4-34.9
						c-5,0-9.9,1.2-14.3,3.3c2.5-9.6,6.3-18.8,11.1-27.6l2.8-5.1l-4.9-3l-24.5-14.8l-4.9-2.9l-2.8,5.1
						C645.8,267.6,638.7,295.2,638.7,323.2L638.7,323.2z"/>
				</g>
				<g>
					<path fill="#C0C0C0" d="M719.2,224.8c-3.8,8.3-3.8,18.5,1,27.1c7.7,13.9,24.7,18.6,37.9,10.6c13.3-8,17.8-25.7,10.2-39.6
						c-4.8-8.7-13.2-13.8-22.1-14.4c14.1-6.1,29.4-9.5,45.6-9.5l0,0v-29.5l0,0c-54.4,0-102.1,31-127.6,76.9l24.5,14.8
						C696.4,247,706.9,234.7,719.2,224.8z"/>
					<path fill="#C0C0C0" d="M664.1,246.4c25.5-45.9,73.2-76.9,127.6-76.9V199c-16.1,0-31.5,3.4-45.6,9.5
						c8.9,0.7,17.3,5.8,22.1,14.4c2.5,4.6,3.7,9.5,3.7,14.5c0,10-5,19.8-13.9,25.1c-13.3,8-30.3,3.3-37.9-10.6
						c-2.5-4.6-3.7-9.5-3.7-14.5c0-4.4,1-8.7,2.8-12.6c-12.3,9.9-22.7,22.3-30.6,36.4L664.1,246.4 M656.4,248.5l4.9,3l24.5,14.8
						l4.9,2.9l2.8-5.1c4.8-8.7,10.7-16.7,17.4-23.8c0.4,5.1,1.9,10,4.4,14.5c9.2,16.7,29.7,22.4,45.7,12.8
						c10.3-6.2,16.7-17.8,16.7-30.2c0-6.1-1.5-12.1-4.5-17.4c-2.5-4.5-5.9-8.4-9.9-11.3c9.3-2.5,18.8-3.8,28.5-3.8h5.7V199v-29.5
						v-5.9h-5.7c-54.4,0-105.1,30.6-132.5,79.8L656.4,248.5L656.4,248.5z"/>
				</g>
				<g>
					<path fill="#C0C0C0" d="M791.7,447.5c-16.1,0-31.5-3.4-45.6-9.5c8.9-0.7,17.3-5.8,22.1-14.4c7.7-13.9,3.1-31.6-10.2-39.6
						c-13.3-8-30.3-3.3-37.9,10.6c-4.8,8.6-4.8,18.7-1,27.1c-12.3-9.9-22.7-22.3-30.6-36.4l-24.5,14.8
						C689.6,446,737.3,477,791.7,477h0L791.7,447.5L791.7,447.5z"/>
					<path fill="#C0C0C0" d="M664.1,400.1l24.5-14.8c7.8,14.1,18.2,26.5,30.6,36.4c-1.8-3.9-2.8-8.2-2.8-12.6
						c0-4.9,1.2-9.9,3.7-14.4c7.7-13.9,24.7-18.6,37.9-10.6c8.9,5.4,13.9,15.1,13.9,25.1c0,4.9-1.2,9.9-3.7,14.5
						c-4.8,8.7-13.2,13.8-22.1,14.4c14,6.1,29.4,9.5,45.6,9.5h0V477h0C737.3,477,689.6,446,664.1,400.1 M656.4,398l2.8,5.1
						c27.4,49.2,78.1,79.8,132.5,79.8h5.7V477l0-29.5v-5.9h-5.7c-9.7,0-19.2-1.3-28.5-3.8c4-2.9,7.4-6.7,9.9-11.3
						c2.9-5.3,4.5-11.3,4.5-17.4c0-12.4-6.4-24-16.7-30.2c-16-9.6-36.4-3.9-45.7,12.8c-2.5,4.5-3.9,9.4-4.4,14.5
						c-6.7-7.1-12.5-15.1-17.4-23.8l-2.8-5.1l-4.9,2.9L661.3,395L656.4,398L656.4,398z"/>
				</g>
			</g>
		</g>
	</g>
	
		<g id="path3773_16_" inkscape:connector-curvature="0" inkscape:export-xdpi="48.18" inkscape:export-filename="/home/rafael/workspace/logo-osi/3/png/logo396x412.png" inkscape:export-ydpi="48.18">
		<g>
			<path fill="#C0C0C0" d="M437.8,65.5C297.4,11.6,139.8,81.7,85.9,222.2C32,362.6,102.2,520.1,242.6,574l63.7-166
				c-25-9.6-44.8-29.4-54.4-54.4c-18.7-48.8,5.6-103.5,54.4-122.2c48.8-18.7,103.5,5.6,122.2,54.4c18.7,48.8-5.6,103.5-54.4,122.2
				l63.7,166c72.1-27.7,129-84.6,156.7-156.7C648.3,276.9,578.2,119.4,437.8,65.5z"/>
		</g>
	</g>
</g>
</svg>
