<?xml version="1.0" encoding="utf-8"?>
<!-- Generator: Adobe Illustrator 18.1.0, SVG Export Plug-In . SVG Version: 6.00 Build 0)  -->
<!DOCTYPE svg PUBLIC "-//W3C//DTD SVG 1.1//EN" "http://www.w3.org/Graphics/SVG/1.1/DTD/svg11.dtd">
<svg version="1.1" id="Layer_1" xmlns="http://www.w3.org/2000/svg" xmlns:xlink="http://www.w3.org/1999/xlink" x="0px" y="0px"
	 viewBox="0 0 1000 1000" enable-background="new 0 0 1000 1000" xml:space="preserve">
<g>
	<g>
		<g>
			<polygon fill="#FFFFFF" points="941.1,98.5 891.3,109.1 891,108 901.7,58 901.7,58 876.7,50 863.2,113.3 499.4,191.1 
				596.5,288.1 742.4,256.9 711.2,402.8 808.2,499.8 885.8,137 949.1,123.4 			"/>
		</g>
	</g>
	<g>
		<g>
			<polygon fill="#FFFFFF" points="289,402.8 257.8,256.9 403.7,288.1 500.8,191 137.9,113.4 124.4,50.2 99.4,58.2 110,107.9 
				108.9,108.3 58.9,97.6 58.9,97.6 50.9,122.5 114.2,136.1 192,499.8 			"/>
		</g>
	</g>
	<g>
		<g>
			<polygon fill="#FFFFFF" points="941.1,901.5 949.1,876.6 885.8,863 808.2,500.2 711.2,597.2 742.4,743.1 596.5,711.9 
				499.4,808.9 863.2,886.7 876.7,950 901.7,942 901.7,942 891,892 891.3,890.9 			"/>
		</g>
	</g>
	<g>
		<g>
			<polygon fill="#FFFFFF" points="403.7,711.9 257.8,743.1 289,597.2 192,500.2 114.2,863.9 50.9,877.5 58.9,902.4 58.9,902.4 
				108.9,891.7 110,892.1 99.4,941.8 124.4,949.8 137.9,886.6 500.8,809 			"/>
		</g>
	</g>
</g>
</svg>
