<?xml version="1.0" encoding="utf-8"?>
<!-- Generator: Adobe Illustrator 18.1.0, SVG Export Plug-In . SVG Version: 6.00 Build 0)  -->
<!DOCTYPE svg PUBLIC "-//W3C//DTD SVG 1.1//EN" "http://www.w3.org/Graphics/SVG/1.1/DTD/svg11.dtd">
<svg version="1.1" id="Layer_1" xmlns="http://www.w3.org/2000/svg" xmlns:xlink="http://www.w3.org/1999/xlink" x="0px" y="0px"
	 viewBox="0 0 1100 1100" enable-background="new 0 0 1100 1100" xml:space="preserve">
<g id="Page-1_7_" sketch:type="MSShapeGroup">
	
		<g id="Group_6_" transform="translate(206.003271, 206.003271) rotate(-1.000000) translate(-206.003271, -206.003271) translate(3.503271, 3.503271)">
		<g id="Group-18_6_" transform="translate(50.000000, 52.000000)">
			<path id="Path-9_6_" fill="none" d="M321.5,238.4l65.9-28.2l48.7-46.9l81.7-33.4l67.3,6.7l63.7,40.9l46.6,71.7l51.9,47l90,69.2
				l31.9,78.9l1.3,83.1l-36.1,110.2l-171.1,64.5L429.8,700L224.9,813.8l-64.2-75l-33.6-89.8l78.5-269.1L321.5,238.4z"/>
			<path id="Fill-14_6_" fill="#D0D2D3" stroke="#FFFFFF" stroke-width="10" d="M435.7,359.5c-21.8,14.7-88.7,41.7-114.1,54.3
				c-10.3,5.1-19.8,6.9-28.5,6.8c-12.7-0.2-23.5-4.8-31.5-9.3c-13.5-7.7-21.1-17.1-26.9-27.3c-8.7-15.1,16.1-38.6,16.1-38.6
				c6.9-8.8,15-20.2,20.4-29.3c5.9-9.9,13.4-18,20.6-28.6c5.4-7.8,9-17.5,17.2-28.8c4.1-5.7,9.3-11.7,16.5-18.2
				c20.1-18.2,41.6-24.7,41.6-24.7c20.7-5.3,28.5-14.9,45.1-31.7c16.6-16.8,49.6-38.3,80.9-46.7c20.1-5.4,37.3-7.9,52.9-7.6
				c26,0.5,47.6,8.7,71.3,24.1c56.1,36.3,81.3,107.9,81.8,109.3c0,0-3.2-0.5-9.9-0.6c-8.1-0.1-21.1,0.2-39.5,2.8
				c-30.3,4.2-56.3,14.7-72.4,21.7c-16.9,7.3-67.7,24.1-67.6,24L435.7,359.5z M844,365.5c-8.8-20.9-17.3-41.5-31-58.7
				c-13.7-17.2-64.6-37.4-116.2-44.3c-14.9-37.1-25.1-55.2-32.5-66c-25.3-37.2-81.1-68.6-119.1-68.6c-37.6,0-87.3,20.1-98.4,29.5
				c-82,69.5-44.7,42.3-105.8,69.5c-44.9,20-46.6-7-85-7c-38.4,0-56.8,14.1-80.6,34.7C162,266,149.8,280,138.1,297.2
				c-20.1,29.4-36.5,62.3-47.5,95.1c-14.6,43.6-16.7,93.4-6.3,147.9c8.1,42.3,23.4,86.5,45.7,131.4c1.7,5.3,4.1,9.6,6.3,12.9
				c3.7,7.9,13,27.7,26.6,50c30.2,49.9,46,67.4,68.5,84.9c19.8,20.6,38,35,54.1,43c8.9,4.4,17.1,6.8,25.2,7.5
				c3.1,0.3,6.2,0.4,9.3,0.5c34.8,0.7,61.5-12.1,85.1-23.4c18.7-9,34.9-16.7,54.1-18c2.4-0.2,4.8-0.2,7.3-0.2
				c22.5,0.4,40.2,9.7,60.6,20.5c22.3,11.8,47.6,25.1,80.7,26.6c42,0.8,70.3-25.4,89-42.8c16-14.9,32.4-32.7,48.6-52.9
				c22.3-27.8,39-50.8,63.7-88.4c29.3-55.9,27.9-46.1,50-120.2c11.2-37.5,14.6-76.5,10.2-115.8C869.2,455.9,848.1,373.8,844,365.5
				L844,365.5z M136.5,682.8c9.1-27.4,23.8-56.2,64.1-88.4c22.6-18.1,68.4-36.4,80.9-41c36.3-13.3,83.1-21.9,121-30.3
				c96.2-21.3,169-22.2,257.1-39.6c15-3,28.7-6.2,40.9-9.5C836.7,437,835.1,348.3,835.1,348.3c0.3,0.6,22.9,53.8,31.9,94.2
				c7.1,31.8,6.4,73-5,111c-10.4,35,3-7.5-7.5,25.1c0,0-11.4,38.2-48.2,62.6c-19.7,13.1-28.1,16.7-59.5,19.5s-45.9,1.4-58.3,0
				c-15.3-1.7-22.5-3.9-45.6-4.9c-4.2-0.2-8.4-0.3-12.6-0.4c-46.7-0.9-97.7,3.7-155.9,14.1c-101,18-130.5,18.8-187.3,59.3
				c-6.4,4.5-28.7,24.6-47.3,51.6l-19.6,28.5c-45.7-49.2-44.5-51.5-57.1-71.1C163.1,736.9,136.2,683.7,136.5,682.8L136.5,682.8z"/>
			<path id="Path_6_" fill="none" stroke="#FFFFFF" stroke-width="10" d="M482.3,321.4c57.2-16,61.8-54.6,47.7-59.4
				c-1.2-0.4-2.4-0.6-3.5-0.6c-12.2-0.2-20.9,21-32.1,43.9c-0.2,0.4-0.5,0.9-0.7,1.3c-9,16.9-32.9,36-58,52.9
				c-21.8,14.7-88.7,41.7-114.1,54.3c-10.3,5.1-19.8,6.9-28.5,6.8c-12.7-0.2-23.5-4.8-31.5-9.3c-13.5-7.7-21.1-17.1-26.9-27.3
				c-8.7-15.1,16.1-38.6,16.1-38.6c6.9-8.8,15-20.2,20.4-29.3c5.9-9.9,13.4-18,20.6-28.6c5.4-7.8,9-17.5,17.2-28.8
				c4.1-5.7,9.3-11.7,16.5-18.2c20.1-18.2,41.6-24.7,41.6-24.7c20.7-5.3,28.5-14.9,45.1-31.7c16.6-16.8,49.6-38.3,80.9-46.7
				c20.1-5.4,37.3-7.9,52.9-7.6c26,0.5,47.6,8.7,71.3,24.1c56.1,36.3,81.3,107.9,81.8,109.3c0,0-3.2-0.5-9.9-0.6
				c-8.1-0.1-21.1,0.2-39.5,2.8c-30.3,4.2-56.3,14.7-72.4,21.7c-16.9,7.3-67.7,24.1-67.6,24"/>
			<path id="Eye_6_" fill="#FFFFFF" d="M364.8,343.7c9.1,0.2,16.7-7.1,16.9-16.2c0.2-9.1-7.1-16.7-16.2-16.9
				c-9.1-0.2-16.7,7.1-16.9,16.2C348.4,335.9,355.7,343.5,364.8,343.7"/>
		</g>
		<path id="Shape_20_" fill="#F2F2F2" d="M590.2,806.2c260.6-88.1,446.2-263.8,404-378.6c-16.6-45.5-75.3-89.9-156.3-93.9
			c0,0,8.8,5.1,12.2,7.5c3.7,2.7,11.2,8,11.2,8c68.9,13.6,105.7,42.8,120.4,83.1c38.6,104.9-141.4,275.4-395.7,361.4
			c-256.7,86.2-487.5,54.7-522.4-49.9c-15.4-46.6-2-125.2,58.7-184.4l0-18.7c-72.9,59.3-88.7,154.9-71.4,207.3
			C89.2,862.5,327.1,894.5,590.2,806.2z"/>
		<path id="Shape_19_" fill="#F2F2F2" d="M461.6,757.9c254.5,104.5,496.1,102.3,538.7-15.4c15.8-43.8-15.1-126-72.5-185.9l-1.7,18
			c43.5,56.1,72.7,127.4,61.7,163.2c-32.4,105.3-272.9,109.8-521.2,7.9C216.4,642.3,48.3,472.4,90.6,370.6
			c19.5-46.5,56.6-76,139.1-77.3l18.7-13.7c-105.8,3.7-148,33.3-170.1,85.9C32,477,205.2,652,461.6,757.9z"/>
		<path id="Shape_18_" fill="#F2F2F2" d="M185.9,517.1c92.4-21,217.5-34.3,351.1-36.6s259.1,6.6,352.2,24.3
			c95.4,18.2,150.2,44.1,150.8,75.9c0.5,26.3-67.7,56.8-134.1,76.4l5.3-17c61.6-19.4,118.5-40,118.2-59.3
			c-0.4-24-52.2-48.5-142.2-65.6c-92.3-17.6-217.1-26.5-350-24.2s-257.3,15.5-348.9,36.4C98.9,547.8,54.7,582,52.1,606
			c-3.1,28.3,47,42.4,95.3,57.9l6.4,15.9c-40.9-15-113.5-26.9-114.3-73.6C38.9,573.3,91.2,538.6,185.9,517.1z"/>
	</g>
</g>
</svg>
