<?xml version="1.0" encoding="utf-8"?>
<!-- Generator: Adobe Illustrator 18.1.0, SVG Export Plug-In . SVG Version: 6.00 Build 0)  -->
<!DOCTYPE svg PUBLIC "-//W3C//DTD SVG 1.1//EN" "http://www.w3.org/Graphics/SVG/1.1/DTD/svg11.dtd">
<svg version="1.1" id="Layer_1" xmlns="http://www.w3.org/2000/svg" xmlns:xlink="http://www.w3.org/1999/xlink" x="0px" y="0px"
	 viewBox="0 0 450 450" enable-background="new 0 0 450 450" xml:space="preserve">
<g>
	<g>
		<path fill="#FFFFFF" d="M334.3,265.4c0,0-24.8,55.1-83.2,57.7c-63,2.8-77.2-74-75.4-107.7c75.3,0,113.7,1.1,203.7,1.1
			c1.8-2.5,5.7-67.6-23.7-101.5H96.4c-78.3,113.3-3.7,208.3,6.3,220h254.3c5-5.9,27-32.1,30.1-43.4
			C353.2,274.2,334.3,265.4,334.3,265.4z M230.2,134.3l3.2-1.8l3.8,6.6l0.1-0.1l3.8-6.6l3.2,1.8l-4.8,8.4l27.9,48.3h-18.8
			l-11.2-19.5L226,190.9h-18.8l27.9-48.3L230.2,134.3z"/>
	</g>
</g>
</svg>
