<?xml version="1.0" encoding="utf-8"?>
<!-- Generator: Adobe Illustrator 18.1.0, SVG Export Plug-In . SVG Version: 6.00 Build 0)  -->
<!DOCTYPE svg PUBLIC "-//W3C//DTD SVG 1.1//EN" "http://www.w3.org/Graphics/SVG/1.1/DTD/svg11.dtd">
<svg version="1.1" id="Layer_1" xmlns="http://www.w3.org/2000/svg" xmlns:xlink="http://www.w3.org/1999/xlink" x="0px" y="0px"
	 viewBox="0 0 1100 1100" enable-background="new 0 0 1100 1100" xml:space="preserve">
<path fill="#FFFFFF" d="M56.7,69c78.2,86.7,849,903.7,857.5,908.7c22.7,13.5,64.7-22.8,54.8-47.6C964.7,919.4,784.8,748.7,77.3,84
	C51.7,59.8,42.5,53.4,56.7,69z M646.8,498.5c275.2,297.9,332,356.2,347.7,356.2c24.9,0,45.5-22.8,40.5-44.1
	c-2.8-10-147.2-148.6-354-339.9C488.2,293,327.6,145.8,324,144.3C320.4,142.9,465.5,302.2,646.8,498.5L646.8,498.5z M614.8,282.3
	c312.8,342,394.6,426.6,413.8,426.6c14.9,0,19.9-3.6,21.3-17.8c1.4-14.9-29.2-46.1-206.2-210.4C538.7,198.4,538,197.7,614.8,282.3
	L614.8,282.3z M450.5,686.2C772,1034.6,776.9,1039.5,804,1039.5c22,0,28.4-3.5,33.4-15.5c2.9-8.5,4.3-21.4,2.9-27.8
	c-2.9-10.7-666.2-629.3-701.1-653.4C130.6,337.1,270.7,491.4,450.5,686.2z M220.2,581.7c10,12.8,108.8,120.9,219.7,240.4
	c174.9,189.1,204.1,218.3,219.8,216.1c14.2-1.4,18.5-6.4,18.5-20.6c0-14.2-29.8-45.5-152.9-159.3C441.3,780.7,334,681.9,287.1,638.6
	C240.1,595.2,210.3,569.5,220.2,581.7z"/>
</svg>
