<?xml version="1.0" encoding="utf-8"?>
<!-- Generator: Adobe Illustrator 18.1.0, SVG Export Plug-In . SVG Version: 6.00 Build 0)  -->
<!DOCTYPE svg PUBLIC "-//W3C//DTD SVG 1.1//EN" "http://www.w3.org/Graphics/SVG/1.1/DTD/svg11.dtd">
<svg version="1.1" id="Layer_1" xmlns="http://www.w3.org/2000/svg" xmlns:xlink="http://www.w3.org/1999/xlink" x="0px" y="0px"
	 viewBox="0 0 1027 597.1" enable-background="new 0 0 1027 597.1" xml:space="preserve">
<g>
	<g>
		<g>
			<path fill="#CCCCCC" d="M740.8,442.7c-73.3,0-132.7-65.7-132.7-146.8c0-81.1,59.4-146.8,132.7-146.8c61.4,0,113,46.1,128.2,108.6
				l158-60.6c-28.4-74-86.9-132.5-160.9-160.9c-118.5-45.5-248.8-4.9-322.3,91c34.2,48.5,54.2,107.6,54.2,171.5
				c0,63.2-19.7,121.8-53.3,170.1c30.3,39.1,71.3,70.7,120.9,89.7c144.2,55.4,306-16.7,361.3-160.9l-158.6-60.9
				C852.4,397.8,801.3,442.7,740.8,442.7z"/>
		</g>
	</g>
	<g>
		<g>
			<g>
				<g>
					<path fill="#CCCCCC" d="M836.2,403.2c4-8.6,3.9-19-1-27.8c-7.9-14.2-25.3-19.1-39-10.9c-13.6,8.2-18.3,26.4-10.4,40.6
						c4.9,8.9,13.6,14.1,22.7,14.8c-14.4,6.3-30.2,9.7-46.8,9.7V460c55.9,0,104.8-31.8,131.1-79l-25.2-15.2
						C859.5,380.4,848.9,393.1,836.2,403.2z"/>
					<path fill="#CCCCCC" d="M761.7,429.7c16.6,0,32.4-3.5,46.8-9.7c-9.1-0.7-17.8-5.9-22.7-14.8c-2.6-4.7-3.8-9.8-3.8-14.9
						c0-10.3,5.1-20.3,14.3-25.8c13.6-8.2,31.1-3.3,39,10.9c2.6,4.7,3.8,9.8,3.8,14.8c0,4.5-1,8.9-2.8,13
						c12.7-10.2,23.3-22.9,31.4-37.3l25.2,15.2c-26.2,47.2-75.1,79-131.1,79V429.7 M755.9,423.7v6.1V460v6.1h5.8
						c55.8,0,108-31.4,136.1-82l2.9-5.3l-5-3l-25.2-15.2l-5-3l-2.9,5.2c-5,9-10.9,17.1-17.8,24.4c-0.4-5.2-2-10.3-4.5-14.9
						c-9.5-17.1-30.5-23-46.9-13.1c-10.6,6.4-17.2,18.3-17.2,31c0,6.3,1.6,12.4,4.6,17.9c2.6,4.7,6.1,8.6,10.2,11.6
						c-9.5,2.6-19.3,3.9-29.3,3.9H755.9L755.9,423.7z"/>
				</g>
				<g>
					<path fill="#CCCCCC" d="M761.7,144.2v30.3c16.6,0,32.4,3.5,46.8,9.7c-9.1,0.7-17.8,5.9-22.7,14.8c-7.9,14.2-3.2,32.4,10.4,40.6
						c13.6,8.2,31.1,3.3,39-10.9c4.9-8.9,4.9-19.2,1-27.8c12.7,10.2,23.3,22.9,31.4,37.3l25.2-15.2
						C866.6,176,817.6,144.2,761.7,144.2z"/>
					<path fill="#CCCCCC" d="M761.7,144.2c55.9,0,104.8,31.8,131.1,79l-25.2,15.2c-8-14.5-18.7-27.2-31.4-37.3c1.9,4,2.8,8.5,2.8,13
						c0,5-1.2,10.2-3.8,14.8c-7.9,14.2-25.3,19.1-39,10.9c-9.2-5.5-14.3-15.5-14.3-25.8c0-5,1.2-10.2,3.8-14.8
						c4.9-8.9,13.6-14.1,22.7-14.8c-14.4-6.3-30.2-9.7-46.8-9.7V144.2 M755.9,138.1v6.1v30.3v6.1h5.8c10,0,19.8,1.3,29.3,3.9
						c-4.1,3-7.6,6.9-10.2,11.6c-3,5.4-4.6,11.6-4.6,17.9c0,12.8,6.6,24.7,17.2,31c7.9,4.8,17.2,6.1,26,3.6
						c8.9-2.5,16.3-8.4,20.8-16.7c2.5-4.6,4.1-9.7,4.5-14.9c6.9,7.3,12.9,15.5,17.8,24.4l2.9,5.2l5-3l25.2-15.2l5-3l-2.9-5.3
						c-28.1-50.6-80.2-82-136.1-82H755.9L755.9,138.1z"/>
				</g>
				<g>
					<path fill="#CCCCCC" d="M640.5,318.8c5.1,7.9,13.8,13.1,23.6,13.1c15.8,0,28.5-13.3,28.5-29.8c0-16.4-12.8-29.8-28.5-29.8
						c-9.8,0-18.5,5.2-23.6,13.1c2.1-17,7.5-32.9,15.4-47.1l-25.2-15.2c-12.9,23.2-20.3,50.2-20.3,78.9c0,28.7,7.4,55.7,20.3,78.9
						l25.2-15.2C648,351.7,642.6,335.7,640.5,318.8z"/>
					<path fill="#CCCCCC" d="M610.4,302.1c0-28.7,7.4-55.7,20.3-78.9l25.2,15.2c-7.9,14.2-13.2,30.1-15.4,47.1
						c5.1-7.9,13.8-13.1,23.6-13.1c15.8,0,28.5,13.3,28.5,29.8c0,16.4-12.8,29.8-28.5,29.8c-9.8,0-18.5-5.2-23.6-13.1
						c2.1,17,7.5,32.9,15.4,47.1l-25.2,15.2C617.8,357.8,610.4,330.8,610.4,302.1 M604.5,302.1c0,28.8,7.3,57.1,21.1,82l2.9,5.2l5-3
						l25.2-15.2l5-3l-2.9-5.3c-5-9-8.8-18.5-11.4-28.3c4.5,2.2,9.5,3.4,14.7,3.4c18.9,0,34.3-16.1,34.3-35.8
						c0-19.7-15.4-35.8-34.3-35.8c-5.2,0-10.1,1.2-14.7,3.4c2.6-9.9,6.4-19.4,11.4-28.3l2.9-5.3l-5-3l-25.2-15.2l-5-3l-2.9,5.2
						C611.8,245,604.5,273.3,604.5,302.1L604.5,302.1z"/>
				</g>
				<g>
					<path fill="#CCCCCC" d="M687.2,201c-4,8.6-3.9,19,1,27.8c7.9,14.2,25.3,19.1,39,10.9c13.6-8.2,18.3-26.4,10.4-40.6
						c-4.9-8.9-13.6-14.1-22.7-14.8c14.4-6.3,30.2-9.7,46.8-9.7l0,0v-30.3l0,0c-55.9,0-104.8,31.8-131.1,79l25.2,15.2
						C663.9,223.9,674.6,211.2,687.2,201z"/>
					<path fill="#CCCCCC" d="M630.7,223.2c26.2-47.2,75.1-79,131.1-79v30.3c-16.6,0-32.4,3.5-46.8,9.7c9.1,0.7,17.8,5.9,22.7,14.8
						c2.6,4.7,3.8,9.8,3.8,14.8c0,10.3-5.1,20.3-14.3,25.8c-13.6,8.2-31.1,3.3-39-10.9c-2.6-4.7-3.8-9.8-3.8-14.8
						c0-4.5,1-8.9,2.8-13c-12.7,10.2-23.3,22.9-31.4,37.3L630.7,223.2 M622.7,225.4l5,3l25.2,15.2l5,3l2.9-5.2
						c5-9,10.9-17.1,17.8-24.4c0.4,5.2,2,10.3,4.5,14.9c9.5,17.1,30.5,23,46.9,13.1c10.6-6.4,17.2-18.3,17.2-31
						c0-6.3-1.6-12.4-4.6-17.9c-2.6-4.7-6.1-8.6-10.2-11.6c9.5-2.6,19.3-3.9,29.3-3.9h5.8v-6.1v-30.3v-6.1h-5.8
						c-55.8,0-108,31.4-136.1,82L622.7,225.4L622.7,225.4z"/>
				</g>
				<g>
					<path fill="#CCCCCC" d="M761.7,429.7c-16.6,0-32.4-3.5-46.8-9.7c9.1-0.7,17.8-5.9,22.7-14.8c7.9-14.2,3.2-32.4-10.4-40.6
						c-13.6-8.2-31.1-3.3-39,10.9c-4.9,8.9-4.9,19.2-1,27.8c-12.7-10.2-23.3-22.9-31.4-37.3l-25.2,15.2c26.2,47.2,75.1,79,131.1,79
						h0L761.7,429.7L761.7,429.7z"/>
					<path fill="#CCCCCC" d="M630.7,381.1l25.2-15.2c8,14.5,18.7,27.2,31.4,37.3c-1.9-4-2.8-8.5-2.8-13c0-5,1.2-10.2,3.8-14.8
						c7.9-14.2,25.3-19.1,39-10.9c9.1,5.5,14.3,15.5,14.3,25.8c0,5-1.2,10.2-3.8,14.9c-4.9,8.9-13.6,14.1-22.7,14.8
						c14.4,6.3,30.2,9.7,46.8,9.7h0V460h0C705.8,460,656.9,428.2,630.7,381.1 M622.7,378.8l2.9,5.3c28.1,50.6,80.2,82,136.1,82h5.8
						V460l0-30.3v-6.1h-5.8c-10,0-19.8-1.3-29.3-3.9c4.1-3,7.6-6.9,10.2-11.6c3-5.4,4.6-11.6,4.6-17.9c0-12.8-6.6-24.7-17.2-31
						c-16.4-9.9-37.4-4-46.9,13.1c-2.5,4.6-4.1,9.7-4.5,14.9c-6.9-7.3-12.9-15.5-17.8-24.4l-2.9-5.2l-5,3l-25.2,15.2L622.7,378.8
						L622.7,378.8z"/>
				</g>
			</g>
		</g>
	</g>
	
		<g id="path3773_16_" inkscape:connector-curvature="0" inkscape:export-xdpi="48.18" inkscape:export-filename="/home/rafael/workspace/logo-osi/3/png/logo396x412.png" inkscape:export-ydpi="48.18">
		<g>
			<path fill="#CCCCCC" d="M398.3,37.4C254-17.9,92.3,54.1,36.9,198.3s16.7,306,160.9,361.3l65.4-170.5c-25.7-9.9-46-30.2-55.9-55.9
				c-19.2-50.1,5.8-106.2,55.9-125.5c50.1-19.2,106.2,5.8,125.5,55.9c19.2,50.1-5.8,106.2-55.9,125.5l65.4,170.5
				c74-28.4,132.5-86.9,160.9-160.9C614.5,254.5,542.5,92.8,398.3,37.4z"/>
		</g>
	</g>
</g>
</svg>
