<?xml version="1.0" encoding="utf-8"?>
<!-- Generator: Adobe Illustrator 18.1.0, SVG Export Plug-In . SVG Version: 6.00 Build 0)  -->
<!DOCTYPE svg PUBLIC "-//W3C//DTD SVG 1.1//EN" "http://www.w3.org/Graphics/SVG/1.1/DTD/svg11.dtd">
<svg version="1.1" id="Layer_1" xmlns="http://www.w3.org/2000/svg" xmlns:xlink="http://www.w3.org/1999/xlink" x="0px" y="0px"
	 viewBox="0 0 620 620" enable-background="new 0 0 620 620" xml:space="preserve">
<g>
	<g>
		<g>
			<g>
				<path fill="#FFFFFF" d="M125,451.9c15.7,7.5,34.7,7.5,50.9-1.9c26-15,35-48.3,19.9-74.4c-15-26-48.3-35-74.4-19.9
					c-16.3,9.4-25.9,25.9-27.1,43.3c-11.5-27.5-17.8-57.7-17.8-89.4H21.1c0,106.7,58.2,200.1,144.5,250.1l27.7-48.1
					C166.8,496.5,143.6,476.1,125,451.9z"/>
				<path fill="#FFFFFF" d="M76.5,309.7c0,31.6,6.4,61.8,17.8,89.4c1.2-17.4,10.8-34,27.1-43.3c8.6-4.9,17.9-7.3,27.2-7.3
					c18.8,0,37.1,9.8,47.2,27.2c15,26,6.1,59.3-19.9,74.4c-8.6,4.9-17.9,7.3-27.1,7.3c-8.2,0-16.3-1.9-23.7-5.4
					c18.6,24.2,41.8,44.5,68.3,59.9l-27.7,48.1c-86.3-50-144.5-143.4-144.5-250.1H76.5 M87.6,298.7H76.5H21.1H10v11.1
					c0,106.6,57.5,206.1,150,259.7l9.6,5.6l5.6-9.6l27.7-48.1l5.5-9.6l-9.6-5.6c-16.4-9.5-31.3-20.9-44.7-34
					c9.5-0.8,18.9-3.7,27.2-8.6c31.3-18.1,42-58.2,24-89.5c-11.7-20.2-33.4-32.8-56.8-32.8c-11.4,0-22.8,3-32.7,8.8
					c-8.5,4.9-15.7,11.6-21.1,19.5c-4.7-18.2-7.1-36.9-7.1-55.9V298.7L87.6,298.7z"/>
			</g>
			<g>
				<path fill="#FFFFFF" d="M598.9,309.7h-55.4c0,31.6-6.4,61.8-17.8,89.4c-1.2-17.4-10.8-34-27.1-43.4c-26-15-59.3-6.1-74.4,19.9
					c-15,26-6.1,59.3,19.9,74.4c16.2,9.4,35.2,9.4,50.9,1.9c-18.6,24.2-41.8,44.6-68.3,59.9l27.8,48.1
					C540.7,509.9,598.9,416.5,598.9,309.7z"/>
				<path fill="#FFFFFF" d="M598.9,309.7c0,106.7-58.2,200.1-144.5,250.1l-27.8-48.1c26.5-15.4,49.7-35.7,68.3-59.9
					c-7.4,3.6-15.5,5.4-23.7,5.4c-9.2,0-18.6-2.4-27.1-7.3c-26-15-35-48.3-19.9-74.4c10.1-17.5,28.4-27.2,47.2-27.2
					c9.2,0,18.6,2.3,27.2,7.3c16.3,9.4,25.9,25.9,27.1,43.4c11.5-27.5,17.8-57.7,17.8-89.4H598.9 M610,298.7h-11.1h-55.4h-11.1v11.1
					c0,19-2.4,37.7-7.1,55.9c-5.4-7.9-12.6-14.6-21.1-19.5c-10-5.7-21.3-8.8-32.7-8.8c-23.4,0-45.1,12.6-56.8,32.8
					c-8.7,15.2-11.1,32.8-6.5,49.7c4.5,16.9,15.4,31,30.5,39.8c8.4,4.8,17.7,7.7,27.2,8.6c-13.4,13.1-28.3,24.5-44.7,34l-9.6,5.6
					l5.5,9.6l27.8,48.1l5.6,9.6l9.6-5.6c92.5-53.6,150-153.2,150-259.7V298.7L610,298.7z"/>
			</g>
			<g>
				<path fill="#FFFFFF" d="M279.5,78.3c-14.5,9.8-24,26.3-24,45.1c0,30.1,24.4,54.4,54.4,54.4c30.1,0,54.4-24.4,54.4-54.4
					c0-18.8-9.5-35.3-24-45.1c31.1,4.1,60.2,14.3,86.2,29.3l27.8-48.1C411.9,35,362.6,20.8,310,20.8c-52.6,0-101.9,14.1-144.4,38.8
					l27.8,48.1C219.3,92.6,248.5,82.4,279.5,78.3z"/>
				<path fill="#FFFFFF" d="M310,20.8c52.6,0,101.9,14.1,144.4,38.8l-27.8,48.1c-26-15.1-55.1-25.3-86.2-29.3
					c14.5,9.8,24,26.3,24,45.1c0,30.1-24.4,54.4-54.4,54.4c-30.1,0-54.4-24.4-54.4-54.4c0-18.8,9.5-35.3,24-45.1
					c-31.1,4.1-60.2,14.3-86.2,29.3l-27.8-48.1C208.1,35,257.4,20.8,310,20.8 M310,9.7c-52.7,0-104.5,13.9-150,40.3l-9.6,5.6
					l5.5,9.6l27.8,48.1l5.6,9.6l9.6-5.6c16.4-9.5,33.8-16.8,51.9-21.8c-4.1,8.6-6.3,18.2-6.3,28c0,36.1,29.4,65.5,65.5,65.5
					c36.1,0,65.5-29.4,65.5-65.5c0-9.8-2.2-19.4-6.3-28c18.1,5,35.4,12.3,51.9,21.8l9.6,5.6l5.6-9.6L464,65.1l5.5-9.6L460,50
					C414.5,23.7,362.7,9.7,310,9.7L310,9.7z"/>
			</g>
			<g>
				<path fill="#FFFFFF" d="M495,167.6c-15.7-7.5-34.7-7.5-50.9,1.9c-26,15-35,48.3-19.9,74.4c15,26,48.3,35,74.4,19.9
					c16.3-9.4,25.9-25.9,27.1-43.4c11.5,27.5,17.8,57.7,17.8,89.4l0,0h55.4l0,0c0-106.7-58.2-200.1-144.5-250.1l-27.8,48.1
					C453.2,123,476.4,143.4,495,167.6z"/>
				<path fill="#FFFFFF" d="M454.4,59.6c86.3,50,144.5,143.4,144.5,250.1h-55.4c0-31.6-6.4-61.8-17.8-89.4
					c-1.2,17.4-10.8,34-27.1,43.4c-8.6,4.9-17.9,7.3-27.2,7.3c-18.8,0-37.1-9.8-47.2-27.2c-15-26-6.1-59.3,19.9-74.4
					c8.6-4.9,17.9-7.3,27.2-7.3c8.2,0,16.3,1.9,23.7,5.4c-18.6-24.1-41.8-44.5-68.3-59.9L454.4,59.6 M450.4,44.4l-5.6,9.6
					l-27.8,48.1l-5.5,9.6l9.6,5.6c16.4,9.5,31.4,20.9,44.7,34c-9.6,0.8-18.9,3.7-27.2,8.5c-31.3,18.1-42,58.2-24,89.5
					c11.7,20.2,33.4,32.8,56.8,32.8c11.4,0,22.8-3,32.7-8.8c8.5-4.9,15.7-11.6,21.1-19.5c4.7,18.2,7.1,36.9,7.1,55.9v11.1h11.1h55.4
					H610v-11.1c0-106.6-57.5-206.1-150-259.7L450.4,44.4L450.4,44.4z"/>
			</g>
			<g>
				<path fill="#FFFFFF" d="M76.5,309.7c0-31.6,6.4-61.8,17.8-89.4c1.2,17.4,10.8,34,27.1,43.3c26,15,59.3,6.1,74.4-19.9
					c15-26,6.1-59.3-19.9-74.4c-16.2-9.4-35.2-9.4-50.9-1.9c18.6-24.1,41.8-44.5,68.3-59.9l-27.8-48.1
					C79.3,109.6,21.1,203,21.1,309.7v0L76.5,309.7L76.5,309.7z"/>
				<path fill="#FFFFFF" d="M165.6,59.6l27.8,48.1c-26.5,15.4-49.7,35.8-68.3,59.9c7.4-3.6,15.5-5.4,23.7-5.4
					c9.2,0,18.6,2.3,27.1,7.3c26,15,35,48.3,19.9,74.4c-10.1,17.5-28.4,27.2-47.2,27.2c-9.2,0-18.6-2.4-27.2-7.3
					c-16.3-9.4-25.9-25.9-27.1-43.3c-11.5,27.5-17.8,57.7-17.8,89.4v0H21.1v0C21.1,203,79.3,109.6,165.6,59.6 M169.6,44.4L160,50
					C67.5,103.6,10,203.2,10,309.7v11.1h11.1l55.4,0h11.1v-11.1c0-19,2.4-37.7,7.1-55.9c5.4,7.9,12.6,14.6,21.1,19.5
					c10,5.8,21.3,8.8,32.7,8.8c23.4,0,45.1-12.6,56.8-32.8c18.1-31.3,7.3-71.4-24-89.5c-8.4-4.8-17.7-7.7-27.2-8.6
					c13.4-13.1,28.3-24.5,44.7-34l9.6-5.6l-5.5-9.6l-27.8-48.1L169.6,44.4L169.6,44.4z"/>
			</g>
			<g>
				<path fill="#FFFFFF" d="M346.6,540.8c14.2-10.2,23.3-26.9,22.8-45.7c-0.8-30.1-25.8-53.8-55.8-53c-30.1,0.8-53.8,25.8-53,55.8
					c0.5,18.8,10.4,35.1,25.1,44.5c-31.1-3.3-60.5-12.7-86.9-27.1L172.2,564c43.1,23.5,92.8,36.4,145.4,35.1
					c52.6-1.3,101.5-16.7,143.4-42.4l-29-47.3C406.4,525,377.5,535.9,346.6,540.8z"/>
				<path fill="#FFFFFF" d="M317.6,599.1c-52.6,1.3-102.2-11.5-145.4-35.1l26.5-48.8c26.4,14.4,55.8,23.8,86.9,27.1
					c-14.7-9.4-24.6-25.7-25.1-44.5c-0.8-30.1,23-55,53-55.8c30.1-0.8,55,23,55.8,53c0.5,18.8-8.6,35.6-22.8,45.7
					c30.9-4.9,59.8-15.8,85.4-31.5l29,47.3C419.1,582.3,370.1,597.7,317.6,599.1 M317.8,610.2c52.7-1.3,104.1-16.6,148.9-44.1
					l9.4-5.8l-5.8-9.4l-29-47.3l-5.8-9.5l-9.5,5.8c-16.2,9.9-33.4,17.7-51.3,23.1c3.9-8.7,5.8-18.3,5.6-28.1
					c-0.9-36.1-31.1-64.8-67.2-63.8c-36.1,0.9-64.7,31.1-63.8,67.2c0.3,9.8,2.7,19.3,7,27.8c-18.2-4.5-35.7-11.4-52.4-20.5l-9.8-5.3
					l-5.3,9.8l-26.5,48.8l-5.3,9.7l9.7,5.3C213,598.9,265.2,611.5,317.8,610.2L317.8,610.2z"/>
			</g>
		</g>
		<g>
			
				<path id="path3773" inkscape:export-xdpi="48.18" inkscape:export-filename="/home/rafael/workspace/logo-osi/3/png/logo396x412.png" inkscape:export-ydpi="48.18" inkscape:connector-curvature="0" fill="#FFFFFF" stroke="#FFFFFF" stroke-width="7.374" stroke-linejoin="round" d="
				M319.6,337.7c13.9-5.3,20.8-20.9,15.5-34.7c-5.3-13.9-20.9-20.8-34.7-15.5c-13.9,5.3-20.8,20.9-15.5,34.7
				c2.7,7.1,8.3,12.7,15.5,15.5l-18.1,47.2c-39.9-15.3-59.9-60.1-44.5-100s60.1-59.9,100-44.5c39.9,15.3,59.9,60.1,44.5,100
				c-7.9,20.5-24.1,36.7-44.5,44.5L319.6,337.7z"/>
		</g>
	</g>
</g>
</svg>
