<?xml version="1.0" encoding="utf-8"?>
<!-- Generator: Adobe Illustrator 18.1.0, SVG Export Plug-In . SVG Version: 6.00 Build 0)  -->
<!DOCTYPE svg PUBLIC "-//W3C//DTD SVG 1.1//EN" "http://www.w3.org/Graphics/SVG/1.1/DTD/svg11.dtd">
<svg version="1.1" id="Layer_1" xmlns="http://www.w3.org/2000/svg" xmlns:xlink="http://www.w3.org/1999/xlink" x="0px" y="0px"
	 viewBox="0 0 1100 1100" enable-background="new 0 0 1100 1100" xml:space="preserve">
<g>
	<g>
		<g>
			<path fill="#FFFFFF" d="M864.9,449.2L604.2,299.4c0,0,0-0.1,0-0.1l-2.2-1.2l57.4-33.1c4.7-2.7,5.6-6.4,3-10.8l-18-31.2
				c-2.7-4.6-6.4-5.4-10.9-2.8l-83.2,48.1l-82.9-47.9c-4.5-2.6-8.2-1.8-10.9,2.8l-18,31.2c-2.5,4.4-1.7,8.1,3,10.8l56.8,32.8
				L235.1,449.2c-18.4,10.4-29,31.6-29,52.6v327.1c0,21,10.6,42,29,52.6l73.9,42.2c36.8,18.4,50,18.4,65.8,18.4
				c52.6,0,84.2-34.2,84.2-89.7V528.3c0-5.4-2.9-8-8-8h-36.8c-5.4,0-8,2.9-8,8v324.2c0,26.4-26.2,50-68.4,29l-76.5-44.8
				c-2.6-2.9-5.2-5.4-5.2-8V501.8c0-2.9,2.6-5.4,5.2-8l255-146.5c0,0.1,0.1,0.2,0.1,0.3l33.2-19.2c0.7-0.1,1.4,0,2.1,0.3l1.3,0.7
				c0.3,0.2,0.6,0.5,0.9,0.8l284.6,163.5c2.6,2.9,5.2,5.4,5.2,8v323.7c0,2.9-2.6,5.4-5.2,8L553.9,997.1c-2.9,2.6-5.4,2.6-8,0
				L472,954.9c-2.9,0-5.4,0-8,0c-18.4,10.4-23.8,13.2-42.2,18.4c-5.4,2.6-10.6,5.2,2.6,13.2l94.9,55.5c8,5.4,18.4,8,29,8
				c10.6,0,18.4-2.6,32.1-5.2l284.6-163.5c18.4-10.4,29-31.6,29-52.6V501.8C893.9,480.8,883.3,459.9,864.9,449.2z"/>
			<path fill="#FFFFFF" d="M635.3,776c-76.5,0-92.3-18.7-97.5-55.5c0-5.4-2.9-8-8-8H493c-5.4,0-8,2.9-8,8
				c0,47.4,26.4,105.5,150.3,105.5c89.7,0,139.7-36.8,139.4-97.5c0-60.6-42-79-129.1-89.7c-89.4-13.2-97.5-18.7-97.5-39.7
				c0-15.8,8-39.7,73.9-39.7c60.6,0,81.6,13,89.7,52.6c0,2.6,5.4,5.2,8,5.2h36.8c2.6,0,2.6,0,5.2-2.6c2.6,0,2.6-2.6,2.6-5.2
				c-5.2-68.4-52.6-100-142.3-100c-81.6,0-129.1,34.2-129.1,92.3c0,63.2,50,79,126.5,87.1c92,10.6,100,23.8,100,42.2
				C719.5,762.8,695.9,776,635.3,776z"/>
		</g>
		<g transform="translate(0,-952.36218)">
			<g transform="matrix(0.7981136,0,0,0.7981136,18.845049,964.294)">
				<path fill="#FFFFFF" d="M650.1,256.1c-8.7-17.1-49.1-61.2,19.5-102.5c-7.1,26.8,20.9,52.2,25,58.9c6.4,10.4,0.2,28.1-7.9,43.7
					c30.9-1.9,66.9-33.8,69.7-65.5c2.6-28.8-16.8-53.7-33.6-69.9l-17.4,17.5c-0.4-22.3,17.8-59.3-50.9-90.5
					c2.4,6.5,15.1,45.5-50.9,94.1C560.1,173.7,581.6,247.6,650.1,256.1z"/>
			</g>
		</g>
	</g>
</g>
</svg>
