<?xml version="1.0" encoding="utf-8"?>
<!-- Generator: Adobe Illustrator 18.1.0, SVG Export Plug-In . SVG Version: 6.00 Build 0)  -->
<!DOCTYPE svg PUBLIC "-//W3C//DTD SVG 1.1//EN" "http://www.w3.org/Graphics/SVG/1.1/DTD/svg11.dtd">
<svg version="1.1" id="Layer_1" xmlns="http://www.w3.org/2000/svg" xmlns:xlink="http://www.w3.org/1999/xlink" x="0px" y="0px"
	 viewBox="0 0 1100 1100" enable-background="new 0 0 1100 1100" xml:space="preserve">
<g>
	<path fill="#FFFFFF" d="M549.8,50l-433,244.5v277.9l0,0v0l0,0v233.2l433,244.4l433.4-244.4V294.5L549.8,50z M572.2,139.2L894.6,321
		L720.1,424l-147.9-83.4V139.2L572.2,139.2z M550,524.3l97-57.2c10.6-6.2,24.2-2.7,30.4,7.9c6.2,10.6,2.7,24.2-7.9,30.4l-97.4,57.4
		v112.3c0,12.3-9.9,22.2-22.2,22.2c-12.3,0-22.2-10-22.2-22.2V562.8l-97.4-57.4c-10.6-6.2-14.1-19.9-7.9-30.4s19.8-14.1,30.4-7.9
		L550,524.3z M527.8,139v201.4l-148,83.6L205.3,321L527.8,139z M183.5,359.7l151.6,89.4l-151.6,85.6V359.7z M916.6,766.7L550,972.3
		L183.5,766.7v-39.9l366.3,201.1l366.8-208.1V766.7z M916.6,657.5L549.8,861.2L183.5,657.6V610l366.3,206.8l366.8-206.8V657.5z
		 M916.6,534.8l-151.8-85.6l151.8-89.5V534.8z"/>
</g>
</svg>
