<?xml version="1.0" encoding="utf-8"?>
<!-- Generator: Adobe Illustrator 18.1.0, SVG Export Plug-In . SVG Version: 6.00 Build 0)  -->
<!DOCTYPE svg PUBLIC "-//W3C//DTD SVG 1.1//EN" "http://www.w3.org/Graphics/SVG/1.1/DTD/svg11.dtd">
<svg version="1.1" id="Layer_1" xmlns="http://www.w3.org/2000/svg" xmlns:xlink="http://www.w3.org/1999/xlink" x="0px" y="0px"
	 viewBox="0 0 1100 1100" enable-background="new 0 0 1100 1100" xml:space="preserve">
<g>
	<path fill="#FFFFFF" d="M1014.7,995.8c-5.5-29.7-9.5-50.8-12.4-63.2c-2.7-12.4-5.8-24.2-8.5-35.5c-1.6-5.8-3.1-11-4.2-15.3
		c-1.3-4-2.6-7.7-3.7-10.5c-11.4-29.7-27.2-52.6-47.6-68.7c-3.5-3.1-6.9-5.3-10.5-7.6l2.6-1l-11-28.5h-96.1l23.2,60.8l5.3-2.1
		c-1.1,3.7-1.9,8.1-2.7,12.6c-2.6,14.2-2.4,29.3,0.3,45c1.8,12.4,5.3,24.8,10.3,37.7c11.3,29.7,27.1,52.7,47.4,68.8
		c1.3,1.1,2.7,1.9,4,2.9c10.8,7.9,23.2,14.8,37.2,20.6l93.8,38C1029.5,1043.7,1020.2,1025.7,1014.7,995.8z"/>
	
		<rect x="864.3" y="779.8" transform="matrix(0.9309 -0.3653 0.3653 0.9309 -229.4829 382.7472)" fill="#FFFFFF" width="65.4" height="36.2"/>
	
		<rect x="841.5" y="789.4" transform="matrix(0.9388 -0.3445 0.3445 0.9388 -224.6612 350.5262)" fill="#FFFFFF" width="65.3" height="36.2"/>
	<path fill="#FFFFFF" d="M576,94.6l4.8,12.6l80.6,36.9c11.3,5,14,14,8.4,26.4l-35.1,77.2l97.9,255.4h95.9L659.9,62.5
		c-4.5-11.6-12.4-15.2-24-10.6l-49.2,18.7C575.2,75.1,571.5,83.2,576,94.6z"/>
	<path fill="#FFFFFF" d="M637.3,185.5c5.6-12.4,2.9-21.4-8.4-26.4L455.4,79.9c-11.1-5.2-19.5-1.3-25.3,11.1L74.5,871.2
		c-1.6,3.9-2.6,7.4-2.7,10.8c0.2,0.5,0,1.3,0,1.8c0,0.3,0.2,0.6,0.2,0.8c0.3,2.9,1.1,5.2,2.7,7.4l47.2,151.5l147.8-65.1
		c0.8-0.3,1.8-0.6,2.6-1.1c1.8-1,3.2-2.4,5-4.2c1.6-1.9,2.9-4.5,4.4-7.4L637.3,185.5z"/>
	<g>
		<g>
			<path fill="#FFFFFF" d="M951.5,529.6h-48.5v40h-10.9v-40h-68.3v69.2H813v-69.2h-68.3v39.9h-10.9v-39.9H576.9v38.9H566v-38.9
				h-57.2l-96.2,210.9h539c12.4,0,18.7-6.1,18.7-18.5V548C970.2,535.7,963.9,529.6,951.5,529.6z M665.6,598.9h-10.9v-69.2h10.9
				V598.9z"/>
		</g>
	</g>
	<g>
		<g>
			<path fill="#FFFFFF" d="M132.7,529.6v39.9h-10.9v-39.9h-3.9H76.4c-12.4,0-18.7,6.1-18.7,18.4v174c0,12.4,6.3,18.5,18.7,18.5h26.9
				l96.2-210.9H132.7z"/>
		</g>
	</g>
</g>
</svg>
