<?xml version="1.0" encoding="utf-8"?>
<!-- Generator: Adobe Illustrator 18.1.0, SVG Export Plug-In . SVG Version: 6.00 Build 0)  -->
<!DOCTYPE svg PUBLIC "-//W3C//DTD SVG 1.1//EN" "http://www.w3.org/Graphics/SVG/1.1/DTD/svg11.dtd">
<svg version="1.1" id="Layer_1" xmlns="http://www.w3.org/2000/svg" xmlns:xlink="http://www.w3.org/1999/xlink" x="0px" y="0px"
	 viewBox="0 0 1100 1100" enable-background="new 0 0 1100 1100" xml:space="preserve">
<g sketch:type="MSPage">
	<g transform="translate(-315.000000, -90.000000)" sketch:type="MSArtboardGroup">
		<g transform="translate(322.000000, 93.000000)" sketch:type="MSLayerGroup">
			<path sketch:type="MSShapeGroup" fill="#FFFFFF" d="M597.3,770.9c30.9-43.7,61.8-89.8,90.7-135.9c18.6-29.7,35.7-58.6,51.2-86.3
				c52.8-94.9,82.6-170.7,82.6-222.8c0-154-124.8-278.8-278.8-278.8S264.1,171.8,264.1,325.8c0,52.1,29.8,127.9,82.6,222.8
				c15.4,27.7,32.6,56.5,51.2,86.3c28.9,46.2,59.8,92.2,90.7,135.9c10.8,15.3,20.9,29.2,29.9,41.5c5.4,7.4,9.3,12.6,11.4,15.4
				c6.6,8.7,19.6,8.7,26.2,0c2.1-2.8,6-8,11.4-15.4C576.5,800.1,586.5,786.2,597.3,770.9z M515.3,751.9
				c-30.6-43.3-61.2-88.8-89.7-134.4c-18.3-29.3-35.2-57.7-50.3-84.8c-50.2-90.1-78.4-162.1-78.4-206.9c0-135.9,110.2-246,246-246
				s246,110.2,246,246c0,44.8-28.3,116.7-78.4,206.9c-15.1,27.2-32,55.6-50.3,84.8c-28.5,45.6-59.1,91.1-89.7,134.4
				c-10.7,15.1-27.6,38.1-27.6,38.1S526,767.1,515.3,751.9z"/>
			<path sketch:type="MSShapeGroup" fill="#FFFFFF" d="M545.8,811.9l174.7-265.4l23.2-23.2l-50.1-50.1
				c-18.3-18.3-52.5-32.4-78.4-32.4h-138c-25.9,0-60.3,14.3-78.7,32.8l-50.6,50.7l23.2,23.2L545.8,811.9z"/>
			<circle sketch:type="MSShapeGroup" fill="#FFFFFF" cx="542.9" cy="293" r="114.8">
			</circle>
		</g>
	</g>
	<g>
		<path fill="#FFFFFF" d="M632.2,814c-5.5,0-12.9,3.5-16.4,7.7l-46.5,53.7c-3.6,4.2-9.4,10.8-13,14.8c-3.5,4-9.3,4-12.8,0
			c-3.5-4-9.4-10.6-13-14.7l-46.3-53.9c-3.5-4.2-10.9-7.6-16.4-7.6H282.3c-5.5,0-12.7,3.6-16,8L103.3,1042c-3.3,4.4-1.5,8,4,8h885.4
			c5.5,0,7.3-3.6,4-8L833.7,822.1c-3.3-4.4-10.5-8-16-8H632.2z"/>
	</g>
</g>
</svg>
