<?xml version="1.0" encoding="utf-8"?>
<!-- Generator: Adobe Illustrator 18.1.0, SVG Export Plug-In . SVG Version: 6.00 Build 0)  -->
<!DOCTYPE svg PUBLIC "-//W3C//DTD SVG 1.1//EN" "http://www.w3.org/Graphics/SVG/1.1/DTD/svg11.dtd">
<svg version="1.1" id="Layer_1" xmlns="http://www.w3.org/2000/svg" xmlns:xlink="http://www.w3.org/1999/xlink" x="0px" y="0px"
	 viewBox="0 0 1100 1100" enable-background="new 0 0 1100 1100" xml:space="preserve">
<g>
	<g>
		<path fill="none" stroke="#FFFFFF" stroke-width="24" stroke-miterlimit="10" d="M550,359.5c125.2,0,241.6,18,329.3,48.2
			C985,444,1050,499.2,1050,549.1c0,52-68.9,110.6-182.4,148.2c-85.8,28.4-198.7,43.3-317.6,43.3c-121.9,0-237.3-13.9-324.1-43.6
			C116.1,659.5,50,600.2,50,549.1c0-49.5,62-104.3,166.3-140.6C304.3,377.8,423.5,359.5,550,359.5z"/>
		<path fill="none" stroke="#FFFFFF" stroke-width="24" stroke-miterlimit="10" d="M384.9,454.8c62.6-108.5,136.3-200.3,206.2-261.2
			c84.3-73.4,164.6-102.1,207.8-77.2c45.1,26,61.4,114.9,37.3,232c-18.2,88.5-61.8,193.8-121.2,296.8
			c-60.9,105.6-130.6,198.6-199.7,259c-87.4,76.4-171.8,104-216,78.5c-42.9-24.7-59.3-105.8-38.7-214.3
			C278.1,676.8,321.7,564.4,384.9,454.8z"/>
		<path fill="none" stroke="#FFFFFF" stroke-width="24" stroke-miterlimit="10" d="M385.1,645.5
			c-62.7-108.4-105.5-218.1-123.3-309.1c-21.5-109.7-6.3-193.6,36.9-218.6c45-26.1,130.3,4.2,219.7,83.6
			c67.6,60,137,150.3,196.6,253.2C776,560.1,821.8,666.9,839.6,756.9c22.5,113.8,4.3,200.8-39.9,226.4
			c-42.9,24.8-121.3-1.5-205-73.4C524,849,448.4,755,385.1,645.5z"/>
	</g>
	<g>
		<g>
			<g>
				<path fill="#FFFFFF" d="M498.6,573v77.2h8.6c0.4-21.6,18.4-39,40.7-39s40.3,17.4,40.7,39h9.5V573H498.6z"/>
			</g>
		</g>
		<g>
			<g>
				<path fill="#FFFFFF" d="M424.9,650.2h77.9l2.8-4.9c-1.7-0.5-3-2.1-2.3-4.3c1.8-5.9,4-11.9,7.1-17.2c2.6-4.5,6.6-9.2,7.3-14.5
					c0.3-2,1.5-3.7,3.7-3.7c0.6,0,1.2,0.2,1.8,0.5c0.4-2.1,1-4.3,1.8-6.3c0.7-1.9,2.4-3.2,4.5-2.6c1.1,0.3,2.2,1.3,2.6,2.5
					l16.7-28.9l45.9,79.5h77.9L557.8,451.7l19.9-34.6l-13.2-7.6v0l-15.8,27.3l-0.6,0.3L532.4,410l-13.2,7.6l19.9,34.6L424.9,650.2z"
					/>
			</g>
		</g>
	</g>
</g>
</svg>
