<?xml version="1.0" encoding="utf-8"?>
<!-- Generator: Adobe Illustrator 18.1.0, SVG Export Plug-In . SVG Version: 6.00 Build 0)  -->
<!DOCTYPE svg PUBLIC "-//W3C//DTD SVG 1.1//EN" "http://www.w3.org/Graphics/SVG/1.1/DTD/svg11.dtd">
<svg version="1.1" id="Layer_1" xmlns="http://www.w3.org/2000/svg" xmlns:xlink="http://www.w3.org/1999/xlink" x="0px" y="0px"
	 viewBox="0 0 1100 1100" enable-background="new 0 0 1100 1100" xml:space="preserve">
<g>
	<path fill="#FFFFFF" d="M550,831.2c-195.5,0-363.2-53.2-455.4-134.4C66,728.3,50,763.2,50,800c0,138.1,223.9,250,500,250
		s500-111.9,500-250c0-36.8-16-71.7-44.6-103.1C913.2,778,745.5,831.2,550,831.2z"/>
	<path fill="#FFFFFF" d="M550,581.2c-195.5,0-363.2-53.2-455.4-134.4C66,478.3,50,513.2,50,550c0,138.1,223.9,250,500,250
		s500-111.9,500-250c0-36.8-16-71.7-44.6-103.1C913.2,528,745.5,581.2,550,581.2z"/>
	<ellipse fill="#FFFFFF" cx="550" cy="300" rx="500" ry="250"/>
</g>
</svg>
