<?xml version="1.0" encoding="utf-8"?>
<!-- Generator: Adobe Illustrator 18.1.0, SVG Export Plug-In . SVG Version: 6.00 Build 0)  -->
<!DOCTYPE svg PUBLIC "-//W3C//DTD SVG 1.1//EN" "http://www.w3.org/Graphics/SVG/1.1/DTD/svg11.dtd">
<svg version="1.1" id="Layer_1" xmlns="http://www.w3.org/2000/svg" xmlns:xlink="http://www.w3.org/1999/xlink" x="0px" y="0px"
	 viewBox="0 0 1100 1079.8" enable-background="new 0 0 1100 1079.8" xml:space="preserve">
<g id="layer6" transform="translate(-273.27313,-435.95455)" inkscape:label="Logo (white part)" inkscape:groupmode="layer">
	<path id="path3966" inkscape:connector-curvature="0" sodipodi:nodetypes="ccssccsszc" fill="#FFFFFF" d="M431.5,1466.7h488.1
		c0,0-108.3-245.9-80.7-471.6c27.5-225.7,205.5-328.4,306.4-339.4c100.9-11,156,51.4,156,51.4l22-33c0,0-145-146.8-328.4-130.3
		c-183.5,16.5-310.1,137.6-389,284.4s-124.8,249.5-156,403.7C418.7,1386,431.5,1466.7,431.5,1466.7z"/>
	<path id="path3968" inkscape:connector-curvature="0" fill="#FFFFFF" d="M334.3,1220.8l95.4,7.3l-16.5,95.4l-89.9-11L334.3,1220.8z
		"/>
	<path id="path3970" inkscape:connector-curvature="0" fill="#FFFFFF" d="M484.7,1019l25.7-71.6l-84.4-33l-27.5,77.1L484.7,1019z"/>
	<path id="path3972" inkscape:connector-curvature="0" fill="#FFFFFF" d="M604,773.1l49.5-58.7l-64.2-42.2L538,729.1L604,773.1z"/>
	<path id="path3974" inkscape:connector-curvature="0" fill="#FFFFFF" d="M734.3,545.6l44,53.2l60.6-34.9l-44-49.5L734.3,545.6z"/>
	<path id="path3976" inkscape:connector-curvature="0" fill="#FFFFFF" d="M949,485l11,53.2l75.2-1.8l-7.3-47.7L949,485z"/>
	<path id="path3978" inkscape:connector-curvature="0" fill="#FFFFFF" d="M1204,541.9l-1.8,33l51.4,27.5l11-16.5L1204,541.9z"/>
	<path id="path3980" inkscape:connector-curvature="0" fill="#FFFFFF" d="M1193,683.2v27.5l49.5,5.5v-22L1193,683.2z"/>
	<path id="path3982" inkscape:connector-curvature="0" fill="#FFFFFF" d="M1035.2,707.1l23.9,44l34.9-27.5l-7.3-29.4L1035.2,707.1z"
		/>
	<path id="path3984" inkscape:connector-curvature="0" fill="#FFFFFF" d="M960,763.9l36.7,55l-22,38.5l-53.2-58.7L960,763.9z"/>
	<path id="path3986" inkscape:connector-curvature="0" fill="#FFFFFF" d="M886.6,916.2l-23.9,47.7l62.4,53.2l14.7-60.6L886.6,916.2z
		"/>
	<path id="path3988" inkscape:connector-curvature="0" fill="#FFFFFF" d="M860.9,1083.2l-3.7,64.2l77.1,33l-3.7-60.6L860.9,1083.2z"
		/>
	<path id="path3990" inkscape:connector-curvature="0" fill="#FFFFFF" d="M882.9,1310.7l18.3,66.1l97.2,5.5l-34.9-71.6H882.9z"/>
</g>
</svg>
